<?xml version="1.0" encoding="UTF-8" standalone="no"?>
<!-- Created with Inkscape (http://www.inkscape.org/) -->

<svg
   width="317.5mm"
   height="158.75mm"
   viewBox="0 0 317.49999 158.75"
   version="1.1"
   id="svg5"
   xml:space="preserve"
   inkscape:version="1.2.1 (0f2f062aeb, 2022-09-21, custom)"
   sodipodi:docname="banner.svg"
   inkscape:export-filename="../19dc0d1/banner.png"
   inkscape:export-xdpi="300"
   inkscape:export-ydpi="300"
   xmlns:inkscape="http://www.inkscape.org/namespaces/inkscape"
   xmlns:sodipodi="http://sodipodi.sourceforge.net/DTD/sodipodi-0.dtd"
   xmlns:xlink="http://www.w3.org/1999/xlink"
   xmlns="http://www.w3.org/2000/svg"
   xmlns:svg="http://www.w3.org/2000/svg"><sodipodi:namedview
     id="namedview7"
     pagecolor="#ffffff"
     bordercolor="#666666"
     borderopacity="1.0"
     inkscape:showpageshadow="false"
     inkscape:pageopacity="1"
     inkscape:pagecheckerboard="true"
     inkscape:deskcolor="#ffffff"
     inkscape:document-units="px"
     showgrid="false"
     showborder="false"
     borderlayer="false"
     inkscape:zoom="0.40252411"
     inkscape:cx="511.77059"
     inkscape:cy="331.65716"
     inkscape:window-width="1366"
     inkscape:window-height="703"
     inkscape:window-x="0"
     inkscape:window-y="28"
     inkscape:window-maximized="1"
     inkscape:current-layer="layer1"
     shape-rendering="auto"
     showguides="true"><inkscape:grid
       type="xygrid"
       id="grid279"
       originx="347.79762"
       originy="21.930654" /></sodipodi:namedview><defs
     id="defs2"><linearGradient
       inkscape:collect="always"
       id="linearGradient4106"><stop
         style="stop-color:#00fff1;stop-opacity:1;"
         offset="0"
         id="stop4102" /><stop
         style="stop-color:#3e5a86;stop-opacity:1;"
         offset="1"
         id="stop4104" /></linearGradient><linearGradient
       inkscape:collect="always"
       id="linearGradient3884"><stop
         style="stop-color:#00fff1;stop-opacity:1;"
         offset="0"
         id="stop3880" /><stop
         style="stop-color:#3e5887;stop-opacity:0.52847838;"
         offset="0.5"
         id="stop3886" /><stop
         style="stop-color:#7dfefc;stop-opacity:1;"
         offset="1"
         id="stop3882" /></linearGradient><linearGradient
       inkscape:collect="always"
       xlink:href="#linearGradient3884"
       id="linearGradient8781"
       gradientUnits="userSpaceOnUse"
       gradientTransform="matrix(0.70960699,0,0,0.70960699,-211.72222,-4.1498432)"
       x1="337.29514"
       y1="97.427742"
       x2="390.427"
       y2="68.383614"
       spreadMethod="pad" /><linearGradient
       inkscape:collect="always"
       xlink:href="#linearGradient3884"
       id="linearGradient8783"
       gradientUnits="userSpaceOnUse"
       gradientTransform="matrix(0.70960699,0,0,0.70960699,-211.72226,-3.3679783)"
       x1="337.29514"
       y1="97.427742"
       x2="390.427"
       y2="68.383614"
       spreadMethod="pad" /><linearGradient
       inkscape:collect="always"
       xlink:href="#linearGradient3884"
       id="linearGradient8785"
       gradientUnits="userSpaceOnUse"
       gradientTransform="matrix(0.70960699,0,0,0.70960699,-211.72226,-2.3096449)"
       x1="337.29514"
       y1="97.427742"
       x2="390.427"
       y2="68.383614"
       spreadMethod="pad" /><linearGradient
       inkscape:collect="always"
       xlink:href="#linearGradient3884"
       id="linearGradient8787"
       gradientUnits="userSpaceOnUse"
       gradientTransform="matrix(0.70960699,0,0,0.70960699,-211.72226,-1.2513115)"
       x1="337.29514"
       y1="97.427742"
       x2="390.427"
       y2="68.383614"
       spreadMethod="pad" /><linearGradient
       inkscape:collect="always"
       xlink:href="#linearGradient4106"
       id="linearGradient8789"
       gradientUnits="userSpaceOnUse"
       gradientTransform="matrix(1.4825969,0,0,1.4825969,-326.62414,11.299746)"
       x1="74.418541"
       y1="62.500774"
       x2="111.17002"
       y2="62.500774" /></defs><g
     inkscape:label="Layer 1"
     inkscape:groupmode="layer"
     id="layer1"
     transform="translate(347.79764,21.930651)"><rect
       style="fill:none;fill-opacity:1;stroke:none;stroke-width:1.99882;stroke-linejoin:bevel;stroke-dasharray:none;stroke-opacity:1;paint-order:markers fill stroke"
       id="rect8765"
       width="317.5"
       height="158.75"
       x="-347.79764"
       y="-21.930651" /><text
       xml:space="preserve"
       style="font-style:normal;font-weight:normal;font-size:25.8731px;line-height:1.25;font-family:sans-serif;fill:url(#linearGradient8789);fill-opacity:1;stroke:none;stroke-width:0.646829;stroke-opacity:1"
       x="-217.84535"
       y="113.60876"
       id="text8769"><tspan
         sodipodi:role="line"
         id="tspan8767"
         style="fill:url(#linearGradient8789);fill-opacity:1;stroke:none;stroke-width:0.646829;stroke-opacity:1"
         x="-217.84535"
         y="113.60876">artis</tspan></text><g
       id="g8779"
       transform="matrix(1.9857684,0,0,1.9857684,-281.33851,-94.756008)"><path
         id="path8771"
         style="mix-blend-mode:normal;fill:url(#linearGradient8781);fill-opacity:1;stroke-width:0.18775"
         d="m 46.452979,44.375586 -16.986044,9.689848 -1.807641,1.113627 v 6.38359 c 0,0 18.754334,10.652827 15.419731,8.781892 1.755297,1.023544 3.334163,1.871204 3.334163,1.871204 l 9.457304,-5.454964 4.466394,-2.576587 0.110071,5.523694 -10e-4,2.270662 -6.899837,3.998206 c -3.79489,2.198885 -6.984678,3.996171 -7.08794,3.994071 -0.103261,-0.0021 -3.271315,-1.788645 -7.040397,-3.969783 l -6.852811,-3.96565 -0.09405,-2.288749 -0.09405,-2.288749 -2.346626,-1.364775 -2.347144,-1.364774 -0.04961,5.003312 c -0.02753,2.751839 0.01436,5.064765 0.09353,5.140255 0.07916,0.07549 3.692455,2.185282 8.029484,4.688086 4.337022,2.502795 8.510633,4.914023 9.274886,5.358329 h 5.17e-4 c 1.162562,0.675868 1.454174,0.774687 1.78387,0.604097 0.216743,-0.112146 3.21014,-1.840197 3.21014,-1.840197 l 7.134449,-4.133598 c 0,0 5.184071,-2.999279 6.242513,-3.613216 l 1.92443,-1.116211 v -4.833814 -0.228926 -1.698088 -6.753076 -6.143294 l -3.427698,-1.899626 -4.53254,2.497005 3.734139,2.042253 -14.651302,8.791194 -11.117151,-6.492626 -2.767789,-1.828829 13.897859,-8.200533 1.875855,0.91984 4.616255,-2.741435 z" /><path
         id="path8773"
         style="mix-blend-mode:normal;fill:url(#linearGradient8783);fill-opacity:1;stroke-width:0.18775"
         d="m 46.452945,45.157449 -16.986044,9.689848 -1.807641,1.113627 v 6.38359 c 0,0 18.754334,10.652827 15.419731,8.781892 1.755297,1.023544 3.334163,1.871204 3.334163,1.871204 l 9.457304,-5.454964 4.466394,-2.576587 0.110071,5.523694 -10e-4,2.270662 -6.899837,3.998206 c -3.79489,2.198885 -6.984678,3.996171 -7.08794,3.994071 -0.103261,-0.0021 -3.271315,-1.788645 -7.040397,-3.969783 l -6.852811,-3.96565 -0.09405,-2.288749 -0.09405,-2.288749 -2.346626,-1.364775 -2.347144,-1.364774 -0.04961,5.003312 c -0.02753,2.751839 0.01436,5.064765 0.09353,5.140255 0.07916,0.07549 3.692455,2.185282 8.029484,4.688086 4.337022,2.502795 8.510633,4.914023 9.274886,5.358329 h 5.17e-4 c 1.162562,0.675868 1.454174,0.774687 1.78387,0.604097 0.216743,-0.112146 3.21014,-1.840197 3.21014,-1.840197 l 7.134449,-4.133598 c 0,0 5.184071,-2.999279 6.242513,-3.613216 l 1.92443,-1.116211 v -4.833814 -0.228926 -1.698088 -6.753076 -6.143294 l -3.427698,-1.899626 -4.53254,2.497005 3.734139,2.042253 -14.651302,8.791194 -11.117151,-6.492626 -2.767789,-1.828829 13.897859,-8.200533 1.875855,0.91984 4.616255,-2.741435 z" /><path
         id="path8775"
         style="mix-blend-mode:normal;fill:url(#linearGradient8785);fill-opacity:1;stroke-width:0.18775"
         d="m 46.452945,46.215783 -16.986044,9.689848 -1.807641,1.113627 v 6.38359 c 0,0 18.754334,10.652827 15.419731,8.781892 1.755297,1.023544 3.334163,1.871204 3.334163,1.871204 l 9.457304,-5.454964 4.466394,-2.576587 0.110071,5.523694 -10e-4,2.270662 -6.899837,3.998206 c -3.79489,2.198885 -6.984678,3.996171 -7.08794,3.994071 -0.103261,-0.0021 -3.271315,-1.788645 -7.040397,-3.969783 l -6.852811,-3.96565 -0.09405,-2.288749 -0.09405,-2.288749 -2.346626,-1.364775 -2.347144,-1.364774 -0.04961,5.003312 c -0.02753,2.751839 0.01436,5.064765 0.09353,5.140255 0.07916,0.07549 3.692455,2.185282 8.029484,4.688086 4.337022,2.502795 8.510633,4.914023 9.274886,5.358329 h 5.17e-4 c 1.162562,0.675868 1.454174,0.774687 1.78387,0.604097 0.216743,-0.112146 3.21014,-1.840197 3.21014,-1.840197 l 7.134449,-4.133598 c 0,0 5.184071,-2.999279 6.242513,-3.613216 l 1.92443,-1.116211 v -4.833814 -0.228926 -1.698088 -6.753076 -6.143294 l -3.427698,-1.899626 -4.53254,2.497005 3.734139,2.042253 -14.651302,8.791194 -11.117151,-6.492626 -2.767789,-1.828829 13.897859,-8.200533 1.875855,0.91984 4.616255,-2.741435 z" /><path
         id="path8777"
         style="mix-blend-mode:normal;fill:url(#linearGradient8787);fill-opacity:1;stroke-width:0.18775"
         d="m 46.452945,47.274117 -16.986044,9.689848 -1.807641,1.113627 v 6.38359 c 0,0 18.754334,10.652827 15.419731,8.781892 1.755297,1.023544 3.334163,1.871204 3.334163,1.871204 l 9.457304,-5.454964 4.466394,-2.576587 0.110071,5.523694 -10e-4,2.270662 -6.899837,3.998206 c -3.79489,2.198885 -6.984678,3.996171 -7.08794,3.994071 -0.103261,-0.0021 -3.271315,-1.788645 -7.040397,-3.969783 l -6.852811,-3.96565 -0.09405,-2.288749 -0.09405,-2.288749 -2.346626,-1.364775 -2.347144,-1.364774 -0.04961,5.003312 c -0.02753,2.751839 0.01436,5.064765 0.09353,5.140255 0.07916,0.07549 3.692455,2.185282 8.029484,4.688086 4.337022,2.502795 8.510633,4.914023 9.274886,5.358329 h 5.17e-4 c 1.162562,0.675868 1.454174,0.774687 1.78387,0.604097 0.216743,-0.112146 3.21014,-1.840197 3.21014,-1.840197 l 7.134449,-4.133598 c 0,0 5.184071,-2.999279 6.242513,-3.613216 l 1.92443,-1.116211 v -4.833814 -0.228926 -1.698088 -6.753076 -6.143294 l -3.427698,-1.899626 -4.53254,2.497005 3.734139,2.042253 -14.651302,8.791194 -11.117151,-6.492626 -2.767789,-1.828829 13.897859,-8.200533 1.875855,0.91984 4.616255,-2.741435 z" /></g></g></svg>
