<?xml version="1.0" encoding="UTF-8" standalone="no"?>
<!-- Created with Inkscape (http://www.inkscape.org/) -->

<svg
   width="317.5mm"
   height="166.6875mm"
   viewBox="0 0 317.5 166.6875"
   version="1.1"
   id="svg60529"
   inkscape:version="1.2.1 (0f2f062aeb, 2022-09-21, custom)"
   sodipodi:docname="banner.svg"
   xmlns:inkscape="http://www.inkscape.org/namespaces/inkscape"
   xmlns:sodipodi="http://sodipodi.sourceforge.net/DTD/sodipodi-0.dtd"
   xmlns:xlink="http://www.w3.org/1999/xlink"
   xmlns="http://www.w3.org/2000/svg"
   xmlns:svg="http://www.w3.org/2000/svg">
  <sodipodi:namedview
     id="namedview60531"
     pagecolor="#ffffff"
     bordercolor="#666666"
     borderopacity="1.0"
     inkscape:pageshadow="2"
     inkscape:pageopacity="0.0"
     inkscape:pagecheckerboard="true"
     inkscape:document-units="mm"
     showgrid="false"
     inkscape:zoom="0.26280162"
     inkscape:cx="1230.9665"
     inkscape:cy="363.39198"
     inkscape:window-width="1366"
     inkscape:window-height="703"
     inkscape:window-x="0"
     inkscape:window-y="28"
     inkscape:window-maximized="1"
     inkscape:current-layer="layer1"
     inkscape:showpageshadow="2"
     inkscape:deskcolor="#ffffff"
     showborder="false" />
  <defs
     id="defs60526">
    <linearGradient
       inkscape:collect="always"
       id="linearGradient24076">
      <stop
         style="stop-color:#5a5a5a;stop-opacity:1;"
         offset="0"
         id="stop24072" />
      <stop
         style="stop-color:#707070;stop-opacity:1;"
         offset="1"
         id="stop24074" />
    </linearGradient>
    <linearGradient
       inkscape:collect="always"
       id="linearGradient16580">
      <stop
         style="stop-color:#e3fc06;stop-opacity:1;"
         offset="0"
         id="stop16576" />
      <stop
         style="stop-color:#28ff1c;stop-opacity:1;"
         offset="1"
         id="stop16578" />
    </linearGradient>
    <clipPath
       clipPathUnits="userSpaceOnUse"
       id="clipPath27388">
      <rect
         style="fill:url(#linearGradient27392);fill-opacity:1;stroke-width:10.4434"
         id="rect27390"
         width="317.5"
         height="166.6875"
         x="136.25024"
         y="-0.26405385"
         inkscape:export-filename="/home/louis/Documents/designs/social preview images/rect492.png"
         inkscape:export-xdpi="57.75"
         inkscape:export-ydpi="57.75"
         ry="18.687395" />
    </clipPath>
    <linearGradient
       inkscape:collect="always"
       xlink:href="#linearGradient24076"
       id="linearGradient27392"
       gradientUnits="userSpaceOnUse"
       gradientTransform="translate(179.13756,-62.965195)"
       x1="3.5714829"
       y1="100.56751"
       x2="231.58914"
       y2="198.80064" />
    <clipPath
       clipPathUnits="userSpaceOnUse"
       id="clipPath27394">
      <rect
         style="fill:url(#linearGradient27398);fill-opacity:1;stroke-width:10.4434"
         id="rect27396"
         width="317.5"
         height="166.6875"
         x="104.73713"
         y="-5.2979522"
         inkscape:export-filename="/home/louis/Documents/designs/social preview images/rect492.png"
         inkscape:export-xdpi="57.75"
         inkscape:export-ydpi="57.75"
         ry="18.687395" />
    </clipPath>
    <linearGradient
       inkscape:collect="always"
       xlink:href="#linearGradient24076"
       id="linearGradient27398"
       gradientUnits="userSpaceOnUse"
       gradientTransform="translate(147.62445,-67.999093)"
       x1="3.5714829"
       y1="100.56751"
       x2="231.58914"
       y2="198.80064" />
    <linearGradient
       inkscape:collect="always"
       xlink:href="#linearGradient16580"
       id="linearGradient34554"
       gradientUnits="userSpaceOnUse"
       gradientTransform="matrix(-5.7854187,5.7854187,-5.7854187,-5.7854187,1946.1012,1433.4047)"
       x1="-31.851248"
       y1="191.58533"
       x2="-28.833031"
       y2="191.58533" />
  </defs>
  <g
     inkscape:label="Layer 1"
     inkscape:groupmode="layer"
     id="layer1"
     transform="translate(-815.30235,-101.45528)">
    <rect
       style="fill:none;fill-opacity:1;stroke-width:10.4434"
       id="rect34532"
       width="317.5"
       height="166.6875"
       x="104.73712"
       y="-5.2979512"
       inkscape:export-filename="../5fdfc4fd/banner.png"
       inkscape:export-xdpi="100"
       inkscape:export-ydpi="100"
       ry="0"
       clip-path="url(#clipPath27394)"
       transform="translate(710.56522,106.75323)" />
    <g
       id="g34538"
       clip-path="url(#clipPath27388)"
       transform="translate(679.0521,101.71933)"
       style="opacity:1;fill:#ececec;fill-opacity:1">
      <g
         inkscape:label="Clip"
         id="g34536"
         transform="matrix(1.447672,0,0,1.447672,-107.45705,-24.666101)"
         style="fill:#e2e2e2;fill-opacity:1" />
    </g>
    <path
       id="path34540"
       style="fill:#666666;fill-opacity:1;stroke-width:7.25894;stroke-dasharray:none;paint-order:markers fill stroke"
       d="m 917.97101,186.48296 14.43416,-18.82633 21.67268,20.00987 -19.58021,15.34308 z"
       sodipodi:nodetypes="ccccc" />
    <path
       id="path34542"
       style="fill:url(#linearGradient34554);fill-opacity:1;stroke-width:7.25894;stroke-dasharray:none;paint-order:markers fill stroke"
       d="m 1030.1972,148.95514 -14.4341,18.82633 -21.6727,-20.00987 19.5802,-15.34308 z"
       sodipodi:nodetypes="ccccc" />
    <path
       d="m 983.379,133.52895 c 2.32454,1.71303 5.65273,4.63009 7.39309,6.48442 l 3.16399,3.36919 5.11175,-4.78137 c 6.14047,-5.7438 12.07837,-7.71554 18.23847,-6.05684 8.4578,2.27904 13.154,8.29825 13.154,16.86346 0,6.0561 -1.1014,8.37082 -6.8131,14.30419 l -4.3915,4.56251 4.5481,4.93413 c 5.2812,5.72932 6.6565,8.80265 6.6565,14.87078 0,9.34658 -7.9707,17.16022 -17.4973,17.15187 -5.2011,-0.004 -9.4074,-2.12719 -14.69649,-7.41633 -1.88403,-1.88394 -3.85306,-3.42229 -4.37842,-3.42229 -0.52446,0 -2.63601,1.75099 -4.69211,3.88792 -4.91735,5.11601 -8.62789,6.95594 -14.02756,6.95594 -5.57787,0 -11.27422,-2.90569 -16.71423,-8.5284 l -4.23295,-4.3749 -4.98411,4.40271 c -5.98427,5.28652 -8.45353,6.33175 -14.9571,6.33175 -9.82473,0 -16.59411,-7.1739 -16.59411,-17.58633 0,-6.13578 2.64738,-11.26129 8.50704,-16.46002 l 2.31709,-2.05878 -4.35861,-4.72811 c -5.18139,-5.62156 -6.46708,-8.63059 -6.46708,-15.13751 0,-9.60938 6.97418,-16.68347 16.44676,-16.68347 6.75008,0 9.70821,1.24586 15.37421,6.46708 l 4.72811,4.3582 2.05871,-2.31692 c 1.13195,-1.27636 3.96057,-3.71102 6.28666,-5.41268 3.47924,-2.54487 5.32375,-3.09568 10.40973,-3.09568 5.1012,0 6.91976,0.54247 10.41005,3.11467 z m -19.65215,7.86903 -4.85624,4.47627 3.98675,4.46948 c 12.66701,14.20233 40.05534,42.86127 43.39134,45.40491 2.15,1.64086 5.0355,2.98179 6.4098,2.98179 6.4966,0 11.2757,-5.13582 11.2757,-12.11752 0,-3.17537 -2.4272,-5.97853 -23.0707,-26.62061 -22.79458,-22.79455 -23.12619,-23.07117 -27.67577,-23.07117 -3.88882,0 -5.35991,0.69546 -9.46088,4.47644 z m -36.38471,-1.30672 c -2.51067,2.51075 -3.16776,4.12952 -3.16776,7.78582 0,4.5603 0.26591,4.88888 22.50058,27.13238 14.44352,14.45334 23.56821,22.774 25.48259,23.23619 4.39438,1.0598 7.30834,-0.0736 12.62684,-4.89829 l 4.76542,-4.32704 -11.81364,-12.743 c -6.49743,-7.00831 -17.68762,-18.73072 -24.86733,-26.04945 -12.67618,-12.92145 -13.18779,-13.30633 -17.70448,-13.30633 -3.69572,0 -5.30238,0.65291 -7.82034,3.16784 z m 76.45136,3.52489 -4.91126,4.52683 7.84436,7.89709 7.8443,7.89718 2.8032,-2.93613 c 7.632,-7.98905 8.6291,-13.5027 3.3881,-18.7425 -2.4727,-2.47271 -4.1473,-3.16784 -7.6145,-3.16784 -3.711,0 -5.2577,0.74864 -9.3565,4.52684 z m -79.62108,42.2892 c 0,6.03056 4.604,10.65542 10.60764,10.65542 3.46026,0 5.23481,-0.85082 9.38185,-4.50098 l 5.11339,-4.50147 -7.94274,-8.03349 -7.94307,-8.03388 -4.60858,5.04916 c -3.80438,4.16798 -4.60849,5.80271 -4.60849,9.36524 z"
       style="fill:#666666;fill-opacity:1;stroke:none;stroke-width:0.117004;stroke-opacity:1"
       id="path34544" />
    <text
       xml:space="preserve"
       style="font-style:normal;font-variant:normal;font-weight:600;font-stretch:normal;font-size:32.9896px;line-height:1.25;font-family:'Bai Jamjuree';-inkscape-font-specification:'Bai Jamjuree, Semi-Bold';font-variant-ligatures:normal;font-variant-caps:normal;font-variant-numeric:normal;font-variant-east-asian:normal;letter-spacing:-0.730538px;fill:#666666;fill-opacity:1;stroke:none;stroke-width:0.824737"
       x="931.96722"
       y="238.92068"
       id="text34550"><tspan
         id="tspan34548"
         style="font-style:normal;font-variant:normal;font-weight:600;font-stretch:normal;font-size:32.9896px;font-family:'Bai Jamjuree';-inkscape-font-specification:'Bai Jamjuree, Semi-Bold';font-variant-ligatures:normal;font-variant-caps:normal;font-variant-numeric:normal;font-variant-east-asian:normal;fill:#666666;fill-opacity:1;stroke-width:0.824737"
         x="931.96722"
         y="238.92068"
         sodipodi:role="line">Knott</tspan></text>
  </g>
</svg>
