<?xml version="1.0" encoding="UTF-8" standalone="no"?>
<!-- Created with Inkscape (http://www.inkscape.org/) -->

<svg
   width="135.46666mm"
   height="72.887825mm"
   viewBox="0 0 135.46666 72.887825"
   version="1.1"
   id="svg5"
   sodipodi:docname="knott-logo.svg"
   inkscape:version="1.1.2 (0a00cf5339, 2022-02-04)"
   xmlns:inkscape="http://www.inkscape.org/namespaces/inkscape"
   xmlns:sodipodi="http://sodipodi.sourceforge.net/DTD/sodipodi-0.dtd"
   xmlns="http://www.w3.org/2000/svg"
   xmlns:svg="http://www.w3.org/2000/svg">
  <sodipodi:namedview
     id="namedview7"
     pagecolor="#ffffff"
     bordercolor="#666666"
     borderopacity="1.0"
     inkscape:pageshadow="2"
     inkscape:pageopacity="0.0"
     inkscape:pagecheckerboard="false"
     inkscape:document-units="px"
     showgrid="false"
     showborder="false"
     inkscape:snap-bbox="true"
     inkscape:bbox-paths="true"
     inkscape:bbox-nodes="true"
     inkscape:snap-bbox-edge-midpoints="true"
     inkscape:snap-bbox-midpoints="false"
     inkscape:zoom="0.50000001"
     inkscape:cx="-70.999999"
     inkscape:cy="194"
     inkscape:window-width="1366"
     inkscape:window-height="711"
     inkscape:window-x="0"
     inkscape:window-y="0"
     inkscape:window-maximized="1"
     inkscape:current-layer="layer1" />
  <defs
     id="defs2" />
  <g
     inkscape:label="Layer 1"
     inkscape:groupmode="layer"
     id="layer1"
     transform="translate(-258.11612,-87.34507)">
    <rect
       style="fill:#f2f2f2;fill-opacity:1;stroke-width:7.9375"
       id="rect64210"
       width="40.160599"
       height="31.891851"
       x="72.67244"
       y="138.45055" />
    <rect
       style="fill:#4d4d4d;fill-opacity:1;stroke-width:7.9375"
       id="rect64196"
       width="40.160599"
       height="31.891851"
       x="112.83304"
       y="138.45055" />
    <rect
       style="fill:#f2f2f2;fill-opacity:1;stroke-width:7.9375"
       id="rect21456"
       width="40.160599"
       height="31.891851"
       x="72.67244"
       y="106.5587" />
    <g
       id="g31855">
      <path
         style="fill:#666666;stroke-width:0.0846667"
         d="m 88.340366,124.3594 c -0.61407,-0.13277 -0.84159,-0.30511 -2.27458,-1.72298 -1.68327,-1.66551 -1.87243,-1.95361 -1.87243,-2.85173 0,-0.90631 0.18425,-1.18409 1.91403,-2.8855 1.34973,-1.32761 1.55907,-1.50117 1.93665,-1.6056 0.51172,-0.14154 0.9265,-0.13924 1.46109,0.008 0.34165,0.0942 0.564613,0.29078 1.56108,1.24876 l 1.197157,1.14637 0.268077,2.01441 c 0,0 -1.475304,-1.4024 -2.033374,-1.96444 -0.55807,-0.56204 -1.11756,-1.07639 -1.24331,-1.143 -0.2919,-0.15463 -0.69028,-0.15459 -0.98207,9e-5 -0.27324,0.14484 -2.583,2.46613 -2.71718,2.73073 -0.12879,0.25395 -0.11757,0.66691 0.0256,0.9411 0.0656,0.12575 0.7088,0.80966 1.42926,1.5198 l 1.30991,1.29116 c 0,0 0.19468,0.1048 0.435344,0.11348 0.240664,0.009 0.464433,-0.19147 0.510623,-0.23767 l 0.979183,0.89419 -0.21116,0.16011 c -0.3581,0.27153 -1.21807,0.44547 -1.69384,0.3426 z"
         id="path69" />
      <path
         style="fill:#55ddff;fill-opacity:1;stroke-width:0.0846667"
         d="m 95.664436,121.47841 -0.41657,-0.42292 0.30391,-0.31791 c 0.37984,-0.39735 0.49325,-0.61613 0.49325,-0.95155 0,-0.4308 -0.17519,-0.65844 -1.5486,-2.01219 0,0 -1.011424,-1.11674 -1.30207,-1.29744 -0.277805,-0.18529 -0.592444,-0.0444 -0.92478,0.0903 l -0.93473,-0.91256 c 0,0 0.86234,-0.45637 1.41123,-0.45637 0.88124,0 1.16442,0.18994 2.88246,1.93341 1.3053,1.32461 1.50211,1.56027 1.59905,1.91463 0.25599,0.93585 0.0827,1.65219 -0.57051,2.35769 -0.25352,0.27383 -0.48685,0.49788 -0.51851,0.49788 -0.0317,0 -0.24502,-0.19032 -0.47413,-0.42293 z"
         id="path4203" />
      <path
         style="fill:#666666;stroke-width:0.0846667"
         d="m 96.510696,124.3851 c -0.85749,-0.17187 -0.9069,-0.20415 -2.09084,-1.3662 l -1.15952,-1.13807 -0.266297,-1.87986 c 0,0 0.704501,0.5726 1.312481,1.17933 1.16757,1.16516 2.147916,2.01292 2.728786,1.86766 0.2628,-0.0657 2.66778,-2.38968 2.8689,-2.77225 0.143894,-0.2737 0.155474,-0.6866 0.0264,-0.94111 -0.13418,-0.26459 -2.480998,-2.53109 -2.71718,-2.73073 -0.369473,-0.3123 -0.84029,-0.16141 -0.96449,-0.0372 l -1.00821,-0.854 0.21116,-0.16011 c 0.29091,-0.22058 0.89016,-0.37567 1.40502,-0.36361 0.75008,0.0176 1.06898,0.24199 2.71505,1.91075 1.655134,1.67795 1.746864,1.82227 1.739854,2.73756 -0.006,0.81184 -0.22444,1.13529 -1.863544,2.76202 -0.88458,0.87791 -1.61958,1.53668 -1.79454,1.60843 -0.34237,0.14041 -0.89762,0.22659 -1.143,0.1774 z"
         id="path4201" />
      <path
         style="fill:#999999;stroke-width:0.0846667"
         d="m 92.342326,124.3465 c -0.64941,-0.11809 -0.91358,-0.32042 -2.45116,-1.87735 -1.33864,-1.3555 -1.53564,-1.59023 -1.63277,-1.94558 -0.26088,-0.95444 -0.0829,-1.66118 0.59987,-2.3822 l 0.48836,-0.5157 0.44686,0.44299 0.44685,0.443 -0.30497,0.319 c -0.38092,0.39844 -0.49433,0.61701 -0.49433,0.95265 0,0.4308 0.17519,0.65844 1.5486,2.01219 1.2689,1.25073 1.32101,1.29117 1.66422,1.29117 0.19487,0 0.561138,-0.0994 0.561138,-0.0994 0,0 0.119842,0.1311 0.44901,0.45629 0.24603,0.24912 0.487212,0.47169 0.487212,0.47169 -0.0871,0.14088 -0.755,0.4154 -1.11185,0.45697 -0.18627,0.0217 -0.49994,0.0101 -0.69704,-0.0257 z"
         id="path4199" />
      <text
         xml:space="preserve"
         style="font-style:normal;font-variant:normal;font-weight:normal;font-stretch:normal;font-size:7.05556px;line-height:1.25;font-family:Mallanna;-inkscape-font-specification:Mallanna;fill:#666666;fill-opacity:1;stroke:none;stroke-width:0.264583"
         x="83.434555"
         y="129.74797"
         id="text5449"><tspan
           sodipodi:role="line"
           id="tspan5447"
           style="font-style:normal;font-variant:normal;font-weight:normal;font-stretch:normal;font-size:7.05556px;font-family:Mallanna;-inkscape-font-specification:Mallanna;fill:#666666;fill-opacity:1;stroke-width:0.264583"
           x="83.434555"
           y="129.74797">Knott<tspan
   style="fill:#999999"
   id="tspan21104">JS</tspan></tspan></text>
    </g>
    <rect
       style="fill:#4d4d4d;fill-opacity:1;stroke-width:7.9375"
       id="rect21864"
       width="40.160599"
       height="31.891851"
       x="112.83304"
       y="106.5587" />
    <text
       xml:space="preserve"
       style="font-style:normal;font-variant:normal;font-weight:normal;font-stretch:normal;font-size:7.05556px;line-height:1.25;font-family:Mallanna;-inkscape-font-specification:Mallanna;fill:#666666;fill-opacity:1;stroke:none;stroke-width:0.264583"
       x="123.59515"
       y="129.74796"
       id="text21432"><tspan
         sodipodi:role="line"
         id="tspan21430"
         style="font-style:normal;font-variant:normal;font-weight:normal;font-stretch:normal;font-size:7.05556px;font-family:Mallanna;-inkscape-font-specification:Mallanna;fill:#666666;fill-opacity:1;stroke-width:0.264583"
         x="123.59515"
         y="129.74796">Knott<tspan
   style="fill:#999999"
   id="tspan21428">JS</tspan></tspan></text>
    <g
       id="g22083"
       transform="matrix(0.28236464,0,0,0.28236464,80.693145,76.854055)">
      <path
         style="fill:#666666;stroke-width:0.0846667"
         d="m 87.99805,123.72267 c -0.61407,-0.13277 -0.84159,-0.30511 -2.27458,-1.72298 -1.68327,-1.66551 -1.87243,-1.95361 -1.87243,-2.85173 0,-0.90631 0.18425,-1.18409 1.91403,-2.8855 1.34973,-1.32761 1.55907,-1.50117 1.93665,-1.6056 0.51172,-0.14154 0.9265,-0.13924 1.46109,0.008 0.34165,0.0942 0.564613,0.29078 1.56108,1.24876 l 1.197157,1.14637 0.268077,2.01441 c 0,0 -1.475304,-1.4024 -2.033374,-1.96444 -0.55807,-0.56204 -1.11756,-1.07639 -1.24331,-1.143 -0.2919,-0.15463 -0.69028,-0.15459 -0.98207,9e-5 -0.27324,0.14484 -2.583,2.46613 -2.71718,2.73073 -0.12879,0.25395 -0.11757,0.66691 0.0256,0.9411 0.0656,0.12575 0.7088,0.80966 1.42926,1.5198 l 1.30991,1.29116 c 0,0 0.19468,0.1048 0.435344,0.11348 0.240664,0.009 0.464433,-0.19147 0.510623,-0.23767 l 0.979183,0.89419 -0.21116,0.16011 c -0.3581,0.27153 -1.21807,0.44547 -1.69384,0.3426 z"
         id="path22075" />
      <path
         style="fill:#cccccc;stroke-width:0.0846667"
         d="m 95.32212,120.84168 -0.41657,-0.42292 0.30391,-0.31791 c 0.37984,-0.39735 0.49325,-0.61613 0.49325,-0.95155 0,-0.4308 -0.17519,-0.65844 -1.5486,-2.01219 0,0 -1.011424,-1.11674 -1.30207,-1.29744 -0.277805,-0.18529 -0.592444,-0.0444 -0.92478,0.0903 l -0.93473,-0.91256 c 0,0 0.86234,-0.45637 1.41123,-0.45637 0.88124,0 1.16442,0.18994 2.88246,1.93341 1.3053,1.32461 1.50211,1.56027 1.59905,1.91463 0.25599,0.93585 0.0827,1.65219 -0.57051,2.35769 -0.25352,0.27383 -0.48685,0.49788 -0.51851,0.49788 -0.0317,0 -0.24502,-0.19032 -0.47413,-0.42293 z"
         id="path22077" />
      <path
         style="fill:#666666;stroke-width:0.0846667"
         d="m 96.16838,123.74837 c -0.85749,-0.17187 -0.9069,-0.20415 -2.09084,-1.3662 l -1.15952,-1.13807 -0.266297,-1.87986 c 0,0 0.704501,0.5726 1.312481,1.17933 1.16757,1.16516 2.147916,2.01292 2.728786,1.86766 0.2628,-0.0657 2.66778,-2.38968 2.8689,-2.77225 0.14389,-0.2737 0.15547,-0.6866 0.0264,-0.94111 -0.13418,-0.26459 -2.480998,-2.53109 -2.71718,-2.73073 -0.369473,-0.3123 -0.84029,-0.16141 -0.96449,-0.0372 l -1.00821,-0.854 0.21116,-0.16011 c 0.29091,-0.22058 0.89016,-0.37567 1.40502,-0.36361 0.75008,0.0176 1.06898,0.24199 2.71505,1.91075 1.65513,1.67795 1.74686,1.82227 1.73985,2.73756 -0.006,0.81184 -0.22444,1.13529 -1.86354,2.76202 -0.88458,0.87791 -1.61958,1.53668 -1.79454,1.60843 -0.34237,0.14041 -0.89762,0.22659 -1.143,0.1774 z"
         id="path22079" />
      <path
         style="fill:#999999;stroke-width:0.0846667"
         d="m 92.00001,123.70977 c -0.64941,-0.11809 -0.91358,-0.32042 -2.45116,-1.87735 -1.33864,-1.3555 -1.53564,-1.59023 -1.63277,-1.94558 -0.26088,-0.95444 -0.0829,-1.66118 0.59987,-2.3822 l 0.48836,-0.5157 0.44686,0.44299 0.44685,0.443 -0.30497,0.319 c -0.38092,0.39844 -0.49433,0.61701 -0.49433,0.95265 0,0.4308 0.17519,0.65844 1.5486,2.01219 1.2689,1.25073 1.32101,1.29117 1.66422,1.29117 0.19487,0 0.561138,-0.0994 0.561138,-0.0994 0,0 0.119842,0.1311 0.44901,0.45629 0.24603,0.24912 0.487212,0.47169 0.487212,0.47169 -0.0871,0.14088 -0.755,0.4154 -1.11185,0.45697 -0.18627,0.0217 -0.49994,0.0101 -0.69704,-0.0257 z"
         id="path22081" />
    </g>
    <g
       id="g22093"
       transform="matrix(0.28236464,0,0,0.28236464,92.895501,76.724089)">
      <path
         style="fill:#666666;stroke-width:0.0846667"
         d="m 87.99805,123.72267 c -0.61407,-0.13277 -0.84159,-0.30511 -2.27458,-1.72298 -1.68327,-1.66551 -1.87243,-1.95361 -1.87243,-2.85173 0,-0.90631 0.18425,-1.18409 1.91403,-2.8855 1.34973,-1.32761 1.55907,-1.50117 1.93665,-1.6056 0.51172,-0.14154 0.9265,-0.13924 1.46109,0.008 0.34165,0.0942 0.564613,0.29078 1.56108,1.24876 l 1.197157,1.14637 0.268077,2.01441 c 0,0 -1.475304,-1.4024 -2.033374,-1.96444 -0.55807,-0.56204 -1.11756,-1.07639 -1.24331,-1.143 -0.2919,-0.15463 -0.69028,-0.15459 -0.98207,9e-5 -0.27324,0.14484 -2.583,2.46613 -2.71718,2.73073 -0.12879,0.25395 -0.11757,0.66691 0.0256,0.9411 0.0656,0.12575 0.7088,0.80966 1.42926,1.5198 l 1.30991,1.29116 c 0,0 0.19468,0.1048 0.435344,0.11348 0.240664,0.009 0.464433,-0.19147 0.510623,-0.23767 l 0.979183,0.89419 -0.21116,0.16011 c -0.3581,0.27153 -1.21807,0.44547 -1.69384,0.3426 z"
         id="path22085" />
      <path
         style="fill:#cccccc;stroke-width:0.0846667"
         d="m 95.32212,120.84168 -0.41657,-0.42292 0.30391,-0.31791 c 0.37984,-0.39735 0.49325,-0.61613 0.49325,-0.95155 0,-0.4308 -0.17519,-0.65844 -1.5486,-2.01219 0,0 -1.011424,-1.11674 -1.30207,-1.29744 -0.277805,-0.18529 -0.592444,-0.0444 -0.92478,0.0903 l -0.93473,-0.91256 c 0,0 0.86234,-0.45637 1.41123,-0.45637 0.88124,0 1.16442,0.18994 2.88246,1.93341 1.3053,1.32461 1.50211,1.56027 1.59905,1.91463 0.25599,0.93585 0.0827,1.65219 -0.57051,2.35769 -0.25352,0.27383 -0.48685,0.49788 -0.51851,0.49788 -0.0317,0 -0.24502,-0.19032 -0.47413,-0.42293 z"
         id="path22087" />
      <path
         style="fill:#666666;stroke-width:0.0846667"
         d="m 96.16838,123.74837 c -0.85749,-0.17187 -0.9069,-0.20415 -2.09084,-1.3662 l -1.15952,-1.13807 -0.266297,-1.87986 c 0,0 0.704501,0.5726 1.312481,1.17933 1.16757,1.16516 2.147916,2.01292 2.728786,1.86766 0.2628,-0.0657 2.66778,-2.38968 2.8689,-2.77225 0.14389,-0.2737 0.15547,-0.6866 0.0264,-0.94111 -0.13418,-0.26459 -2.480998,-2.53109 -2.71718,-2.73073 -0.369473,-0.3123 -0.84029,-0.16141 -0.96449,-0.0372 l -1.00821,-0.854 0.21116,-0.16011 c 0.29091,-0.22058 0.89016,-0.37567 1.40502,-0.36361 0.75008,0.0176 1.06898,0.24199 2.71505,1.91075 1.65513,1.67795 1.74686,1.82227 1.73985,2.73756 -0.006,0.81184 -0.22444,1.13529 -1.86354,2.76202 -0.88458,0.87791 -1.61958,1.53668 -1.79454,1.60843 -0.34237,0.14041 -0.89762,0.22659 -1.143,0.1774 z"
         id="path22089" />
      <path
         style="fill:#999999;stroke-width:0.0846667"
         d="m 92.00001,123.70977 c -0.64941,-0.11809 -0.91358,-0.32042 -2.45116,-1.87735 -1.33864,-1.3555 -1.53564,-1.59023 -1.63277,-1.94558 -0.26088,-0.95444 -0.0829,-1.66118 0.59987,-2.3822 l 0.48836,-0.5157 0.44686,0.44299 0.44685,0.443 -0.30497,0.319 c -0.38092,0.39844 -0.49433,0.61701 -0.49433,0.95265 0,0.4308 0.17519,0.65844 1.5486,2.01219 1.2689,1.25073 1.32101,1.29117 1.66422,1.29117 0.19487,0 0.561138,-0.0994 0.561138,-0.0994 0,0 0.119842,0.1311 0.44901,0.45629 0.24603,0.24912 0.487212,0.47169 0.487212,0.47169 -0.0871,0.14088 -0.755,0.4154 -1.11185,0.45697 -0.18627,0.0217 -0.49994,0.0101 -0.69704,-0.0257 z"
         id="path22091" />
    </g>
    <g
       id="g64222"
       transform="translate(-13.171554,-15.825456)">
      <g
         id="g64215">
        <path
           style="fill:#b3b3b3;fill-opacity:1;stroke-width:0.0846667"
           d="m 102.37698,173.51127 -0.002,-0.54132 -0.42481,-5.7e-4 c -0.54969,-0.001 -1.07857,-0.0579 -1.21301,-0.3652 -0.13296,-0.30389 -0.113,-0.38 -0.12796,-2.12414 0,0 -0.0353,-1.79392 0.0418,-2.12735 0.0649,-0.32759 0.25188,-0.61576 0.58187,-0.75611 l 0.0741,-1.26286 c 0,0 -0.94469,0.27642 -1.319409,0.67751 -0.74668,0.79925 -0.68737,0.95891 -0.66507,3.40652 0.0169,1.8596 0.0447,2.16537 0.22754,2.48415 0.482219,0.84192 1.111959,1.2248 2.072769,1.26006 0.37292,0.0138 0.69631,0.006 0.71868,-0.0159 0.0223,-0.0225 0.0382,-0.30791 0.035,-0.63438 z"
           id="path36555"
           sodipodi:nodetypes="ccssccccsscsccc" />
        <path
           style="fill:#666666;stroke-width:0.0846667"
           d="m 100.31956,166.70968 c 0.52846,-0.33977 0.81125,-0.37848 2.82712,-0.38704 2.36795,-0.01 2.71894,0.054 3.35334,0.68959 0.64019,0.64154 0.69236,0.97473 0.66972,3.40093 -0.0174,1.89316 -0.0432,2.16388 -0.23674,2.50451 -0.26225,0.46164 -0.55748,0.75299 -1.03989,1.02638 -0.30839,0.17465 -0.60506,0.19299 -1.98708,0.21874 l -1.78722,-0.004 -0.64688,-1.21534 c 0,0 2.65293,0.11173 3.67865,-0.0978 0.31586,-0.0967 0.59782,-0.37815 0.69511,-0.69374 0.0911,-0.29554 0.0864,-3.57018 -0.005,-3.85227 -0.0883,-0.27073 -0.37786,-0.56586 -0.67288,-0.65882 -0.13526,-0.0427 -1.07363,-0.0725 -2.08523,-0.0662 0,0 -1.6825,-0.078 -1.83926,0.0114 -0.15677,0.0893 -0.13705,0.0454 -0.31354,0.20922 -0.17672,0.16362 -0.27429,0.54323 -0.27435,0.60856 l -1.328719,0.008 0.0364,-0.26248 c 0.0777,-0.60456 0.54755,-1.17573 0.956999,-1.43898 z"
           id="path36557"
           sodipodi:nodetypes="ccccccccccsccczcccccc" />
        <path
           style="fill:#cccccc;fill-opacity:1;stroke-width:0.0846667"
           d="m 106.30226,167.27359 0.37479,0.39059 0.30771,-0.29288 c 0.39877,-0.37834 0.82079,-0.70212 1.13007,-0.57246 0.3059,0.12827 0.34395,0.19714 1.55804,1.44943 0,0 1.26311,1.27435 1.43736,1.56888 0.179,0.28193 0.24246,0.61953 0.10039,0.94879 l 0.81759,0.96532 c 0,0 0.49318,-0.85183 0.48775,-1.4007 -0.0109,-1.09371 -0.16393,-1.16838 -1.86865,-2.92487 -1.2951,-1.33458 -1.5262,-1.53671 -1.87849,-1.64135 -0.92992,-0.27681 -1.64994,-0.11953 -2.36981,0.51779 -0.27947,0.24731 -0.50837,0.47588 -0.50931,0.50731 -7.2e-4,0.0317 0.18479,0.24922 0.41226,0.48343 z"
           id="path36559"
           sodipodi:nodetypes="ccssccccsscsccc" />
      </g>
      <path
         style="fill:#666666;stroke-width:0.0846667"
         d="m 112.48398,170.77801 c -0.14817,0.61056 -0.32617,0.83367 -1.7796,2.23057 -1.70735,1.64081 -2.00009,1.82269 -2.89789,1.80018 -0.90602,-0.0228 -1.17907,-0.21395 -2.83647,-1.98594 -1.29338,-1.38258 -1.46156,-1.59628 -1.55643,-1.97639 -0.12864,-0.51511 -0.1159,-0.9297 0.0447,-1.46042 0.10277,-0.33918 0.30488,-0.55714 1.2876,-1.5292 l 1.26446,-1.22972 1.33863,0.43297 c 0,0 -1.9976,1.74932 -2.5956,2.60861 -0.16196,0.28789 -0.1719,0.68618 -0.0246,0.98176 0.13796,0.27678 2.40048,2.64412 2.66136,2.78518 0.25063,0.13512 0.66392,0.14896 0.94162,0.0127 0.12739,-0.0624 0.82719,-0.68824 1.5552,-1.39065 0,0 1.27181,-1.10426 1.32362,-1.27712 0.0518,-0.17287 0.0679,-0.12738 0.0827,-0.36776 0.015,-0.24037 -0.17621,-0.58248 -0.22124,-0.62982 l 0.9565,-0.92232 0.15472,0.21514 c 0.36087,0.49121 0.41472,1.22888 0.29993,1.70192 z"
         id="path36561"
         sodipodi:nodetypes="ccccccccccsccczcccccc" />
    </g>
    <g
       id="g36553"
       transform="translate(9.4977145,-18.54632)">
      <path
         style="fill:#55ddff;fill-opacity:1;stroke-width:0.0846667"
         d="m 119.86831,173.42211 -0.002,-0.54132 -0.42481,-5.7e-4 c -0.54969,-0.001 -1.01795,-0.0879 -1.15239,-0.39524 -0.13296,-0.30389 -0.14959,-0.76315 -0.18858,-2.0941 0,0 -0.0309,-1.74281 0.0462,-2.07624 0.0649,-0.32759 0.17617,-0.65299 0.56698,-0.83565 l 0.083,-1.17829 c 0,0 -0.91368,0.12949 -1.25688,0.55786 -0.85078,1.06193 -0.72686,1.00396 -0.726,3.47003 6.6e-4,1.89191 0.0447,2.16537 0.22754,2.48415 0.48222,0.84192 1.11196,1.2248 2.07277,1.26006 0.37292,0.0138 0.69631,0.006 0.71868,-0.0159 0.0223,-0.0225 0.0382,-0.30791 0.035,-0.63438 z"
         id="path32836"
         sodipodi:nodetypes="ccssccccsscsccc" />
      <path
         style="fill:#666666;stroke-width:0.0846667"
         d="m 117.81089,166.62052 c 0.52846,-0.33977 0.81125,-0.37848 2.82712,-0.38704 2.36795,-0.01 2.71894,0.054 3.35334,0.68959 0.64019,0.64154 0.69236,0.97473 0.66972,3.40093 -0.0174,1.89316 -0.0432,2.16388 -0.23674,2.50451 -0.26225,0.46164 -0.55748,0.75299 -1.03989,1.02638 -0.30839,0.17465 -0.60506,0.19299 -1.98708,0.21874 l -1.78213,0.005 -0.65626,-1.22872 c 0,0 2.65722,0.116 3.68294,-0.0935 0.31586,-0.0967 0.59782,-0.37815 0.69511,-0.69374 0.0911,-0.29554 0.0864,-3.57018 -0.005,-3.85227 -0.0883,-0.27073 -0.37786,-0.56586 -0.67288,-0.65882 -0.13526,-0.0427 -1.07363,-0.0725 -2.08523,-0.0662 0,0 -1.6825,-0.078 -1.83926,0.0114 -0.15677,0.0893 -0.13705,0.0454 -0.31354,0.20922 -0.17672,0.16362 -0.26123,0.54656 -0.27435,0.60856 l -1.3237,0.0118 0.031,-0.26628 c 0.098,-0.58439 0.54755,-1.17573 0.957,-1.43898 z"
         id="path32013"
         sodipodi:nodetypes="ccccccccccsccczcccccc" />
      <path
         style="fill:#55ddff;fill-opacity:1;stroke-width:0.0846667"
         d="m 123.79359,167.18443 0.37479,0.39059 0.30771,-0.29288 c 0.39877,-0.37834 0.82079,-0.70212 1.13007,-0.57246 0.3059,0.12827 0.34395,0.19714 1.55804,1.44943 0,0 1.23628,1.30162 1.43736,1.56888 0.179,0.28193 0.28761,0.68885 0.11535,1.0113 l 0.75858,0.89505 c 0,0 0.56487,-0.84504 0.5318,-1.39294 -0.0679,-1.12438 -0.18499,-1.20369 -1.86865,-2.92487 -1.30042,-1.3294 -1.5262,-1.53671 -1.87849,-1.64135 -0.92992,-0.27681 -1.64994,-0.11953 -2.36981,0.51779 -0.27947,0.24731 -0.50837,0.47588 -0.50931,0.50731 -7.2e-4,0.0317 0.18479,0.24922 0.41226,0.48343 z"
         id="path36001"
         sodipodi:nodetypes="ccssccccsscsccc" />
      <path
         style="fill:#666666;stroke-width:0.0846667"
         d="m 129.97531,170.68885 c -0.14817,0.61056 -0.32617,0.83367 -1.7796,2.23057 -1.70735,1.64081 -2.00009,1.82269 -2.89789,1.80018 -0.90602,-0.0228 -1.17907,-0.21395 -2.83647,-1.98594 -1.29338,-1.38258 -1.46156,-1.59628 -1.55643,-1.97639 -0.12864,-0.51511 -0.1159,-0.9297 0.0447,-1.46042 0.10277,-0.33918 0.30488,-0.55714 1.2876,-1.5292 l 1.26446,-1.22972 1.33863,0.43297 c 0,0 -1.9976,1.74932 -2.5956,2.60861 -0.16196,0.28789 -0.1719,0.68618 -0.0246,0.98176 0.13796,0.27678 2.40048,2.64412 2.66136,2.78518 0.25063,0.13512 0.66392,0.14896 0.94162,0.0127 0.12739,-0.0624 0.82719,-0.68824 1.5552,-1.39065 0,0 1.27181,-1.10426 1.32362,-1.27712 0.0518,-0.17287 0.0679,-0.12738 0.0827,-0.36776 0.015,-0.24037 -0.17621,-0.58248 -0.22124,-0.62982 l 0.95196,-0.91881 0.15926,0.21163 c 0.36087,0.49121 0.41472,1.22888 0.29993,1.70192 z"
         id="path36003"
         sodipodi:nodetypes="ccccccccccsccczcccccc" />
    </g>
    <g
       id="g64114"
       transform="translate(9.6049895,-18.54632)">
      <text
         xml:space="preserve"
         style="font-style:normal;font-variant:normal;font-weight:normal;font-stretch:normal;font-size:6.09459px;line-height:1.25;font-family:Mallanna;-inkscape-font-specification:Mallanna;fill:#666666;fill-opacity:1;stroke:none;stroke-width:0.228547"
         x="115.29433"
         y="180.27478"
         id="text31869"><tspan
           sodipodi:role="line"
           id="tspan31867"
           style="font-style:normal;font-variant:normal;font-weight:normal;font-stretch:normal;font-size:6.09459px;font-family:Mallanna;-inkscape-font-specification:Mallanna;fill:#666666;fill-opacity:1;stroke-width:0.228547"
           x="115.29433"
           y="180.27478">Knott</tspan></text>
      <text
         xml:space="preserve"
         style="font-style:normal;font-variant:normal;font-weight:normal;font-stretch:normal;font-size:6.09459px;line-height:1.25;font-family:Mallanna;-inkscape-font-specification:Mallanna;fill:#55ddff;fill-opacity:1;stroke:none;stroke-width:0.228547"
         x="126.64986"
         y="180.27829"
         id="text59429"><tspan
           sodipodi:role="line"
           id="tspan59427"
           style="font-style:normal;font-variant:normal;font-weight:normal;font-stretch:normal;font-size:6.09459px;font-family:Mallanna;-inkscape-font-specification:Mallanna;fill:#55ddff;fill-opacity:1;stroke-width:0.228547"
           x="126.64986"
           y="180.27829">JS</tspan></text>
    </g>
    <rect
       style="fill:none;stroke-width:27.0416"
       id="rect441"
       width="135.46666"
       height="72.762131"
       x="258.11612"
       y="87.34507" />
    <g
       id="g21426"
       transform="matrix(7.9133386,0,0,7.9133386,-405.42555,-819.14023)">
      <path
         style="fill:#666666;stroke-width:0.0846667"
         d="m 87.99805,123.72267 c -0.61407,-0.13277 -0.84159,-0.30511 -2.27458,-1.72298 -1.68327,-1.66551 -1.87243,-1.95361 -1.87243,-2.85173 0,-0.90631 0.18425,-1.18409 1.91403,-2.8855 1.34973,-1.32761 1.55907,-1.50117 1.93665,-1.6056 0.51172,-0.14154 0.9265,-0.13924 1.46109,0.008 0.34165,0.0942 0.564613,0.29078 1.56108,1.24876 l 1.197157,1.14637 0.268077,2.01441 c 0,0 -1.475304,-1.4024 -2.033374,-1.96444 -0.55807,-0.56204 -1.11756,-1.07639 -1.24331,-1.143 -0.2919,-0.15463 -0.69028,-0.15459 -0.98207,9e-5 -0.27324,0.14484 -2.583,2.46613 -2.71718,2.73073 -0.12879,0.25395 -0.11757,0.66691 0.0256,0.9411 0.0656,0.12575 0.7088,0.80966 1.42926,1.5198 l 1.30991,1.29116 c 0,0 0.19468,0.1048 0.435344,0.11348 0.240664,0.009 0.464433,-0.19147 0.510623,-0.23767 l 0.979183,0.89419 -0.21116,0.16011 c -0.3581,0.27153 -1.21807,0.44547 -1.69384,0.3426 z"
         id="path21418" />
      <path
         style="fill:#55ddff;stroke-width:0.0846667"
         d="m 95.32212,120.84168 -0.41657,-0.42292 0.30391,-0.31791 c 0.37984,-0.39735 0.49325,-0.61613 0.49325,-0.95155 0,-0.4308 -0.17519,-0.65844 -1.5486,-2.01219 0,0 -1.011424,-1.11674 -1.30207,-1.29744 -0.277805,-0.18529 -0.592444,-0.0444 -0.92478,0.0903 l -0.93473,-0.91256 c 0,0 0.86234,-0.45637 1.41123,-0.45637 0.88124,0 1.16442,0.18994 2.88246,1.93341 1.3053,1.32461 1.50211,1.56027 1.59905,1.91463 0.25599,0.93585 0.0827,1.65219 -0.57051,2.35769 -0.25352,0.27383 -0.48685,0.49788 -0.51851,0.49788 -0.0317,0 -0.24502,-0.19032 -0.47413,-0.42293 z"
         id="path21420" />
      <path
         style="fill:#666666;stroke-width:0.0846667"
         d="m 96.16838,123.74837 c -0.85749,-0.17187 -0.9069,-0.20415 -2.09084,-1.3662 l -1.15952,-1.13807 -0.266297,-1.87986 c 0,0 0.704501,0.5726 1.312481,1.17933 1.16757,1.16516 2.147916,2.01292 2.728786,1.86766 0.2628,-0.0657 2.66778,-2.38968 2.8689,-2.77225 0.14389,-0.2737 0.15547,-0.6866 0.0264,-0.94111 -0.13418,-0.26459 -2.480998,-2.53109 -2.71718,-2.73073 -0.369473,-0.3123 -0.84029,-0.16141 -0.96449,-0.0372 l -1.00821,-0.854 0.21116,-0.16011 c 0.29091,-0.22058 0.89016,-0.37567 1.40502,-0.36361 0.75008,0.0176 1.06898,0.24199 2.71505,1.91075 1.65513,1.67795 1.74686,1.82227 1.73985,2.73756 -0.006,0.81184 -0.22444,1.13529 -1.86354,2.76202 -0.88458,0.87791 -1.61958,1.53668 -1.79454,1.60843 -0.34237,0.14041 -0.89762,0.22659 -1.143,0.1774 z"
         id="path21422" />
      <path
         style="fill:#999999;stroke-width:0.0846667"
         d="m 92.00001,123.70977 c -0.64941,-0.11809 -0.91358,-0.32042 -2.45116,-1.87735 -1.33864,-1.3555 -1.53564,-1.59023 -1.63277,-1.94558 -0.26088,-0.95444 -0.0829,-1.66118 0.59987,-2.3822 l 0.48836,-0.5157 0.44686,0.44299 0.44685,0.443 -0.30497,0.319 c -0.38092,0.39844 -0.49433,0.61701 -0.49433,0.95265 0,0.4308 0.17519,0.65844 1.5486,2.01219 1.2689,1.25073 1.32101,1.29117 1.66422,1.29117 0.19487,0 0.561138,-0.0994 0.561138,-0.0994 0,0 0.119842,0.1311 0.44901,0.45629 0.24603,0.24912 0.487212,0.47169 0.487212,0.47169 -0.0871,0.14088 -0.755,0.4154 -1.11185,0.45697 -0.18627,0.0217 -0.49994,0.0101 -0.69704,-0.0257 z"
         id="path21424" />
    </g>
  </g>
</svg>
