<?xml version="1.0" encoding="UTF-8" standalone="no"?>
<!-- Created with Inkscape (http://www.inkscape.org/) -->

<svg
   width="511.99997"
   height="511.99997"
   viewBox="0 0 135.46665 135.46666"
   version="1.1"
   id="svg5"
   inkscape:version="1.1.2 (0a00cf5339, 2022-02-04)"
   sodipodi:docname="logo.svg"
   xmlns:inkscape="http://www.inkscape.org/namespaces/inkscape"
   xmlns:sodipodi="http://sodipodi.sourceforge.net/DTD/sodipodi-0.dtd"
   xmlns="http://www.w3.org/2000/svg"
   xmlns:svg="http://www.w3.org/2000/svg">
  <sodipodi:namedview
     id="namedview7"
     pagecolor="#ffffff"
     bordercolor="#666666"
     borderopacity="1.0"
     inkscape:pageshadow="2"
     inkscape:pageopacity="0.0"
     inkscape:pagecheckerboard="true"
     inkscape:document-units="mm"
     showgrid="false"
     showborder="false"
     inkscape:snap-bbox="true"
     inkscape:bbox-paths="false"
     inkscape:bbox-nodes="false"
     inkscape:snap-bbox-edge-midpoints="false"
     inkscape:snap-bbox-midpoints="false"
     inkscape:zoom="0.18582881"
     inkscape:cx="1261.9142"
     inkscape:cy="258.30226"
     inkscape:window-width="1366"
     inkscape:window-height="711"
     inkscape:window-x="0"
     inkscape:window-y="0"
     inkscape:window-maximized="1"
     inkscape:current-layer="layer3"
     units="px"
     showguides="true"
     inkscape:guide-bbox="true">
    <sodipodi:guide
       position="238.27519,555.60418"
       orientation="1,0"
       id="guide827" />
    <sodipodi:guide
       position="238.27519,555.60418"
       orientation="0,-1"
       id="guide829" />
  </sodipodi:namedview>
  <defs
     id="defs2" />
  <g
     inkscape:label="Layer 1"
     inkscape:groupmode="layer"
     id="layer1"
     transform="translate(429.05994,-332.92722)" />
  <g
     inkscape:groupmode="layer"
     id="layer2"
     inkscape:label="Layer 2"
     style="opacity:1"
     transform="translate(429.05994,-332.92722)" />
  <g
     inkscape:groupmode="layer"
     id="layer3"
     inkscape:label="Layer 3"
     transform="translate(429.05994,-332.92722)">
    <rect
       style="fill:none;fill-opacity:1;stroke-width:4.30614"
       id="rect41286"
       width="135.46666"
       height="135.46666"
       x="-429.05994"
       y="332.92722" />
    <g
       id="g59617"
       transform="matrix(1.1934394,0,0,1.1934394,243.84404,-81.940098)">
      <path
         style="fill:#67d3c3;fill-opacity:1;stroke-width:0.658314"
         d="m -534.6798,429.95381 -0.0156,-4.20896 -3.30305,-0.004 c -4.27403,-0.008 -7.91492,-0.68346 -8.96024,-3.07313 -1.03381,-2.36286 -1.16311,-5.93376 -1.46628,-16.28237 0,0 -0.24025,-13.55097 0.35923,-16.14351 0.50462,-2.54712 1.36978,-5.07722 4.40847,-6.49747 l 0.64535,-9.16162 c 0,0 -7.10419,1.00683 -9.77269,4.33756 -6.61511,8.25688 -5.65159,7.80614 -5.6449,26.98071 0.005,14.71027 0.34755,16.83652 1.7692,19.31515 3.74943,6.54622 8.64588,9.52325 16.11652,9.79741 2.89959,0.1073 5.41406,0.0466 5.58799,-0.12363 0.17339,-0.17494 0.29702,-2.39411 0.27214,-4.93253 z"
         id="path41374"
         sodipodi:nodetypes="ccssccccsscsccc"
         inkscape:export-filename="/home/louis/Documents/designs/social preview images/rect492.png"
         inkscape:export-xdpi="57.75"
         inkscape:export-ydpi="57.75" />
      <path
         style="fill:#666666;fill-opacity:1;stroke-width:0.658314"
         d="m -550.67697,377.06903 c 4.10896,-2.64183 6.30776,-2.94282 21.98186,-3.00937 18.41165,-0.0778 21.14072,0.41987 26.07341,5.3618 4.9777,4.9882 5.38334,7.57888 5.20731,26.44344 -0.13529,14.71999 -0.3359,16.82494 -1.84074,19.47345 -2.03908,3.58942 -4.3346,5.85477 -8.08551,7.98047 -2.39784,1.35797 -4.70456,1.50057 -15.45025,1.70078 l -13.8567,0.0389 -5.10265,-9.55373 c 0,0 20.66083,0.90194 28.63616,-0.727 2.45593,-0.75188 4.64827,-2.94025 5.40473,-5.39407 0.70834,-2.29793 0.67179,-27.75942 -0.0389,-29.95277 -0.68656,-2.10502 -2.938,-4.39976 -5.23188,-5.12256 -1.0517,-0.33201 -8.34785,-0.56371 -16.2134,-0.51473 0,0 -13.08204,-0.60647 -14.3009,0.0886 -1.21895,0.69434 -1.06562,0.353 -2.43789,1.62676 -1.37406,1.27221 -2.03115,4.2497 -2.13317,4.73177 l -10.29223,0.0917 0.24103,-2.07042 c 0.76199,-4.54384 4.2574,-9.14172 7.44102,-11.18858 z"
         id="path41376"
         sodipodi:nodetypes="ccccccccccsccczcccccc"
         inkscape:export-filename="/home/louis/Documents/designs/social preview images/rect492.png"
         inkscape:export-xdpi="57.75"
         inkscape:export-ydpi="57.75" />
      <path
         style="fill:#67d3c3;fill-opacity:1;stroke-width:0.658314"
         d="m -504.15936,381.45363 2.91413,3.03698 2.39255,-2.27725 c 3.10058,-2.94173 6.38194,-5.45923 8.7867,-4.45108 2.37848,0.99735 2.67433,1.53283 12.11431,11.26983 0,0 9.61252,10.12056 11.17599,12.1986 1.39179,2.19211 2.23627,5.35605 0.89688,7.86322 l 5.89823,6.95933 c 0,0 4.39207,-6.57049 4.13494,-10.8306 -0.52795,-8.74246 -1.43837,-9.35912 -14.52942,-22.74191 -10.11123,-10.33655 -11.86675,-11.94846 -14.60593,-12.76207 -7.23045,-2.1523 -12.82887,-0.92939 -18.42611,4.026 -2.17298,1.92292 -3.95276,3.70013 -3.96007,3.94451 -0.006,0.24648 1.43681,1.93778 3.20547,3.75884 z"
         id="path41378"
         sodipodi:nodetypes="ccssccccsscsccc"
         inkscape:export-filename="/home/louis/Documents/designs/social preview images/rect492.png"
         inkscape:export-xdpi="57.75"
         inkscape:export-ydpi="57.75" />
      <path
         style="fill:#666666;fill-opacity:1;stroke-width:0.658314"
         d="m -456.09429,408.70174 c -1.15207,4.74732 -2.53609,6.48208 -13.83702,17.34347 -13.27525,12.75788 -15.55141,14.17206 -22.53212,13.99704 -7.04463,-0.17728 -9.16769,-1.66354 -22.05456,-15.44139 -10.05649,-10.75005 -11.36415,-12.41164 -12.1018,-15.36713 -1.00022,-4.00516 -0.90116,-7.22875 0.34756,-11.35528 0.79907,-2.63725 2.37055,-4.33197 10.01155,-11.89008 l 9.83162,-9.56151 10.40832,3.3665 c 0,0 -15.53204,13.60158 -20.18171,20.28287 -1.25929,2.23844 -1.33658,5.33529 -0.19127,7.63353 1.07269,2.15206 18.66458,20.55897 20.69302,21.65576 1.94873,1.05061 5.16221,1.15822 7.32143,0.0987 0.9905,-0.48518 6.43169,-5.35131 12.09223,-10.8128 0,0 9.88877,-8.58601 10.29161,-9.93006 0.40277,-1.34412 0.52795,-0.99042 0.64303,-2.85946 0.11663,-1.86897 -1.3701,-4.52899 -1.72022,-4.89708 l 7.40182,-7.14407 1.23831,1.6455 c 2.80589,3.81933 3.22459,9.55497 2.33206,13.23303 z"
         id="path41380"
         sodipodi:nodetypes="ccccccccccsccczcccccc"
         inkscape:export-filename="/home/louis/Documents/designs/social preview images/rect492.png"
         inkscape:export-xdpi="57.75"
         inkscape:export-ydpi="57.75" />
    </g>
  </g>
</svg>
