<?xml version="1.0" encoding="UTF-8" standalone="no"?>
<!-- Created with Inkscape (http://www.inkscape.org/) -->

<svg
   width="135.46666mm"
   height="72.887825mm"
   viewBox="0 0 135.46666 72.887825"
   version="1.1"
   id="svg5"
   sodipodi:docname="logo-extended.svg"
   inkscape:version="1.1.2 (0a00cf5339, 2022-02-04)"
   xmlns:inkscape="http://www.inkscape.org/namespaces/inkscape"
   xmlns:sodipodi="http://sodipodi.sourceforge.net/DTD/sodipodi-0.dtd"
   xmlns="http://www.w3.org/2000/svg"
   xmlns:svg="http://www.w3.org/2000/svg">
  <sodipodi:namedview
     id="namedview7"
     pagecolor="#ffffff"
     bordercolor="#666666"
     borderopacity="1.0"
     inkscape:pageshadow="2"
     inkscape:pageopacity="0.0"
     inkscape:pagecheckerboard="false"
     inkscape:document-units="px"
     showgrid="false"
     showborder="false"
     inkscape:snap-bbox="true"
     inkscape:bbox-paths="true"
     inkscape:bbox-nodes="true"
     inkscape:snap-bbox-edge-midpoints="true"
     inkscape:snap-bbox-midpoints="false"
     inkscape:zoom="2"
     inkscape:cx="-678.24999"
     inkscape:cy="176.5"
     inkscape:window-width="1366"
     inkscape:window-height="711"
     inkscape:window-x="0"
     inkscape:window-y="0"
     inkscape:window-maximized="1"
     inkscape:current-layer="layer1" />
  <defs
     id="defs2" />
  <g
     inkscape:label="Layer 1"
     inkscape:groupmode="layer"
     id="layer1"
     transform="translate(-258.11612,-87.34507)">
    <rect
       style="fill:#f2f2f2;fill-opacity:1;stroke-width:7.9375"
       id="rect64210"
       width="40.160599"
       height="31.891851"
       x="72.67244"
       y="138.45055" />
    <rect
       style="fill:#4d4d4d;fill-opacity:1;stroke-width:7.9375"
       id="rect64196"
       width="40.160599"
       height="31.891851"
       x="112.83304"
       y="138.45055" />
    <rect
       style="fill:#f2f2f2;fill-opacity:1;stroke-width:7.9375"
       id="rect21456"
       width="40.160599"
       height="31.891851"
       x="72.67244"
       y="106.5587" />
    <path
       style="fill:#666666;stroke-width:0.0846667"
       d="m 88.340366,124.3594 c -0.61407,-0.13277 -0.84159,-0.30511 -2.27458,-1.72298 -1.68327,-1.66551 -1.87243,-1.95361 -1.87243,-2.85173 0,-0.90631 0.18425,-1.18409 1.91403,-2.8855 1.34973,-1.32761 1.55907,-1.50117 1.93665,-1.6056 0.51172,-0.14154 0.9265,-0.13924 1.46109,0.008 0.34165,0.0942 0.564613,0.29078 1.56108,1.24876 l 1.197157,1.14637 0.268077,2.01441 c 0,0 -1.475304,-1.4024 -2.033374,-1.96444 -0.55807,-0.56204 -1.11756,-1.07639 -1.24331,-1.143 -0.2919,-0.15463 -0.69028,-0.15459 -0.98207,9e-5 -0.27324,0.14484 -2.583,2.46613 -2.71718,2.73073 -0.12879,0.25395 -0.11757,0.66691 0.0256,0.9411 0.0656,0.12575 0.7088,0.80966 1.42926,1.5198 l 1.30991,1.29116 c 0,0 0.19468,0.1048 0.435344,0.11348 0.240664,0.009 0.464433,-0.19147 0.510623,-0.23767 l 0.979183,0.89419 -0.21116,0.16011 c -0.3581,0.27153 -1.21807,0.44547 -1.69384,0.3426 z"
       id="path69" />
    <path
       style="fill:#67d3c3;fill-opacity:1;stroke-width:0.0846667"
       d="m 95.664436,121.47841 -0.41657,-0.42292 0.30391,-0.31791 c 0.37984,-0.39735 0.49325,-0.61613 0.49325,-0.95155 0,-0.4308 -0.17519,-0.65844 -1.5486,-2.01219 0,0 -1.011424,-1.11674 -1.30207,-1.29744 -0.277805,-0.18529 -0.592444,-0.0444 -0.92478,0.0903 l -0.93473,-0.91256 c 0,0 0.86234,-0.45637 1.41123,-0.45637 0.88124,0 1.16442,0.18994 2.88246,1.93341 1.3053,1.32461 1.50211,1.56027 1.59905,1.91463 0.25599,0.93585 0.0827,1.65219 -0.57051,2.35769 -0.25352,0.27383 -0.48685,0.49788 -0.51851,0.49788 -0.0317,0 -0.24502,-0.19032 -0.47413,-0.42293 z"
       id="path4203" />
    <path
       style="fill:#666666;stroke-width:0.0846667"
       d="m 96.510696,124.3851 c -0.85749,-0.17187 -0.9069,-0.20415 -2.09084,-1.3662 l -1.15952,-1.13807 -0.266297,-1.87986 c 0,0 0.704501,0.5726 1.312481,1.17933 1.16757,1.16516 2.147916,2.01292 2.728786,1.86766 0.2628,-0.0657 2.66778,-2.38968 2.8689,-2.77225 0.143894,-0.2737 0.155474,-0.6866 0.0264,-0.94111 -0.13418,-0.26459 -2.480998,-2.53109 -2.71718,-2.73073 -0.369473,-0.3123 -0.84029,-0.16141 -0.96449,-0.0372 l -1.00821,-0.854 0.21116,-0.16011 c 0.29091,-0.22058 0.89016,-0.37567 1.40502,-0.36361 0.75008,0.0176 1.06898,0.24199 2.71505,1.91075 1.655134,1.67795 1.746864,1.82227 1.739854,2.73756 -0.006,0.81184 -0.22444,1.13529 -1.863544,2.76202 -0.88458,0.87791 -1.61958,1.53668 -1.79454,1.60843 -0.34237,0.14041 -0.89762,0.22659 -1.143,0.1774 z"
       id="path4201" />
    <path
       style="fill:#999999;stroke-width:0.0846667"
       d="m 92.342326,124.3465 c -0.64941,-0.11809 -0.91358,-0.32042 -2.45116,-1.87735 -1.33864,-1.3555 -1.53564,-1.59023 -1.63277,-1.94558 -0.26088,-0.95444 -0.0829,-1.66118 0.59987,-2.3822 l 0.48836,-0.5157 0.44686,0.44299 0.44685,0.443 -0.30497,0.319 c -0.38092,0.39844 -0.49433,0.61701 -0.49433,0.95265 0,0.4308 0.17519,0.65844 1.5486,2.01219 1.2689,1.25073 1.32101,1.29117 1.66422,1.29117 0.19487,0 0.561138,-0.0994 0.561138,-0.0994 0,0 0.119842,0.1311 0.44901,0.45629 0.24603,0.24912 0.487212,0.47169 0.487212,0.47169 -0.0871,0.14088 -0.755,0.4154 -1.11185,0.45697 -0.18627,0.0217 -0.49994,0.0101 -0.69704,-0.0257 z"
       id="path4199" />
    <text
       xml:space="preserve"
       style="font-style:normal;font-variant:normal;font-weight:normal;font-stretch:normal;font-size:7.05556px;line-height:1.25;font-family:Mallanna;-inkscape-font-specification:Mallanna;fill:#666666;fill-opacity:1;stroke:none;stroke-width:0.264583"
       x="83.434555"
       y="129.74797"
       id="text5449"><tspan
         sodipodi:role="line"
         id="tspan5447"
         style="font-style:normal;font-variant:normal;font-weight:normal;font-stretch:normal;font-size:7.05556px;font-family:Mallanna;-inkscape-font-specification:Mallanna;fill:#666666;fill-opacity:1;stroke-width:0.264583"
         x="83.434555"
         y="129.74797">Knott<tspan
   style="fill:#999999"
   id="tspan21104">JS</tspan></tspan></text>
    <rect
       style="fill:#4d4d4d;fill-opacity:1;stroke-width:7.9375"
       id="rect21864"
       width="40.160599"
       height="31.891851"
       x="112.83304"
       y="106.5587" />
    <text
       xml:space="preserve"
       style="font-style:normal;font-variant:normal;font-weight:normal;font-stretch:normal;font-size:7.05556px;line-height:1.25;font-family:Mallanna;-inkscape-font-specification:Mallanna;fill:#666666;fill-opacity:1;stroke:none;stroke-width:0.264583"
       x="123.59515"
       y="129.74796"
       id="text21432"><tspan
         sodipodi:role="line"
         id="tspan21430"
         style="font-style:normal;font-variant:normal;font-weight:normal;font-stretch:normal;font-size:7.05556px;font-family:Mallanna;-inkscape-font-specification:Mallanna;fill:#666666;fill-opacity:1;stroke-width:0.264583"
         x="123.59515"
         y="129.74796">Knott<tspan
   style="fill:#999999"
   id="tspan21428">JS</tspan></tspan></text>
    <g
       id="g22083"
       transform="matrix(0.28236464,0,0,0.28236464,80.693145,76.854055)">
      <path
         style="fill:#666666;stroke-width:0.0846667"
         d="m 87.99805,123.72267 c -0.61407,-0.13277 -0.84159,-0.30511 -2.27458,-1.72298 -1.68327,-1.66551 -1.87243,-1.95361 -1.87243,-2.85173 0,-0.90631 0.18425,-1.18409 1.91403,-2.8855 1.34973,-1.32761 1.55907,-1.50117 1.93665,-1.6056 0.51172,-0.14154 0.9265,-0.13924 1.46109,0.008 0.34165,0.0942 0.564613,0.29078 1.56108,1.24876 l 1.197157,1.14637 0.268077,2.01441 c 0,0 -1.475304,-1.4024 -2.033374,-1.96444 -0.55807,-0.56204 -1.11756,-1.07639 -1.24331,-1.143 -0.2919,-0.15463 -0.69028,-0.15459 -0.98207,9e-5 -0.27324,0.14484 -2.583,2.46613 -2.71718,2.73073 -0.12879,0.25395 -0.11757,0.66691 0.0256,0.9411 0.0656,0.12575 0.7088,0.80966 1.42926,1.5198 l 1.30991,1.29116 c 0,0 0.19468,0.1048 0.435344,0.11348 0.240664,0.009 0.464433,-0.19147 0.510623,-0.23767 l 0.979183,0.89419 -0.21116,0.16011 c -0.3581,0.27153 -1.21807,0.44547 -1.69384,0.3426 z"
         id="path22075" />
      <path
         style="fill:#cccccc;stroke-width:0.0846667"
         d="m 95.32212,120.84168 -0.41657,-0.42292 0.30391,-0.31791 c 0.37984,-0.39735 0.49325,-0.61613 0.49325,-0.95155 0,-0.4308 -0.17519,-0.65844 -1.5486,-2.01219 0,0 -1.011424,-1.11674 -1.30207,-1.29744 -0.277805,-0.18529 -0.592444,-0.0444 -0.92478,0.0903 l -0.93473,-0.91256 c 0,0 0.86234,-0.45637 1.41123,-0.45637 0.88124,0 1.16442,0.18994 2.88246,1.93341 1.3053,1.32461 1.50211,1.56027 1.59905,1.91463 0.25599,0.93585 0.0827,1.65219 -0.57051,2.35769 -0.25352,0.27383 -0.48685,0.49788 -0.51851,0.49788 -0.0317,0 -0.24502,-0.19032 -0.47413,-0.42293 z"
         id="path22077" />
      <path
         style="fill:#666666;stroke-width:0.0846667"
         d="m 96.16838,123.74837 c -0.85749,-0.17187 -0.9069,-0.20415 -2.09084,-1.3662 l -1.15952,-1.13807 -0.266297,-1.87986 c 0,0 0.704501,0.5726 1.312481,1.17933 1.16757,1.16516 2.147916,2.01292 2.728786,1.86766 0.2628,-0.0657 2.66778,-2.38968 2.8689,-2.77225 0.14389,-0.2737 0.15547,-0.6866 0.0264,-0.94111 -0.13418,-0.26459 -2.480998,-2.53109 -2.71718,-2.73073 -0.369473,-0.3123 -0.84029,-0.16141 -0.96449,-0.0372 l -1.00821,-0.854 0.21116,-0.16011 c 0.29091,-0.22058 0.89016,-0.37567 1.40502,-0.36361 0.75008,0.0176 1.06898,0.24199 2.71505,1.91075 1.65513,1.67795 1.74686,1.82227 1.73985,2.73756 -0.006,0.81184 -0.22444,1.13529 -1.86354,2.76202 -0.88458,0.87791 -1.61958,1.53668 -1.79454,1.60843 -0.34237,0.14041 -0.89762,0.22659 -1.143,0.1774 z"
         id="path22079" />
      <path
         style="fill:#999999;stroke-width:0.0846667"
         d="m 92.00001,123.70977 c -0.64941,-0.11809 -0.91358,-0.32042 -2.45116,-1.87735 -1.33864,-1.3555 -1.53564,-1.59023 -1.63277,-1.94558 -0.26088,-0.95444 -0.0829,-1.66118 0.59987,-2.3822 l 0.48836,-0.5157 0.44686,0.44299 0.44685,0.443 -0.30497,0.319 c -0.38092,0.39844 -0.49433,0.61701 -0.49433,0.95265 0,0.4308 0.17519,0.65844 1.5486,2.01219 1.2689,1.25073 1.32101,1.29117 1.66422,1.29117 0.19487,0 0.561138,-0.0994 0.561138,-0.0994 0,0 0.119842,0.1311 0.44901,0.45629 0.24603,0.24912 0.487212,0.47169 0.487212,0.47169 -0.0871,0.14088 -0.755,0.4154 -1.11185,0.45697 -0.18627,0.0217 -0.49994,0.0101 -0.69704,-0.0257 z"
         id="path22081" />
    </g>
    <g
       id="g22093"
       transform="matrix(0.28236464,0,0,0.28236464,92.895501,76.724089)">
      <path
         style="fill:#666666;stroke-width:0.0846667"
         d="m 87.99805,123.72267 c -0.61407,-0.13277 -0.84159,-0.30511 -2.27458,-1.72298 -1.68327,-1.66551 -1.87243,-1.95361 -1.87243,-2.85173 0,-0.90631 0.18425,-1.18409 1.91403,-2.8855 1.34973,-1.32761 1.55907,-1.50117 1.93665,-1.6056 0.51172,-0.14154 0.9265,-0.13924 1.46109,0.008 0.34165,0.0942 0.564613,0.29078 1.56108,1.24876 l 1.197157,1.14637 0.268077,2.01441 c 0,0 -1.475304,-1.4024 -2.033374,-1.96444 -0.55807,-0.56204 -1.11756,-1.07639 -1.24331,-1.143 -0.2919,-0.15463 -0.69028,-0.15459 -0.98207,9e-5 -0.27324,0.14484 -2.583,2.46613 -2.71718,2.73073 -0.12879,0.25395 -0.11757,0.66691 0.0256,0.9411 0.0656,0.12575 0.7088,0.80966 1.42926,1.5198 l 1.30991,1.29116 c 0,0 0.19468,0.1048 0.435344,0.11348 0.240664,0.009 0.464433,-0.19147 0.510623,-0.23767 l 0.979183,0.89419 -0.21116,0.16011 c -0.3581,0.27153 -1.21807,0.44547 -1.69384,0.3426 z"
         id="path22085" />
      <path
         style="fill:#cccccc;stroke-width:0.0846667"
         d="m 95.32212,120.84168 -0.41657,-0.42292 0.30391,-0.31791 c 0.37984,-0.39735 0.49325,-0.61613 0.49325,-0.95155 0,-0.4308 -0.17519,-0.65844 -1.5486,-2.01219 0,0 -1.011424,-1.11674 -1.30207,-1.29744 -0.277805,-0.18529 -0.592444,-0.0444 -0.92478,0.0903 l -0.93473,-0.91256 c 0,0 0.86234,-0.45637 1.41123,-0.45637 0.88124,0 1.16442,0.18994 2.88246,1.93341 1.3053,1.32461 1.50211,1.56027 1.59905,1.91463 0.25599,0.93585 0.0827,1.65219 -0.57051,2.35769 -0.25352,0.27383 -0.48685,0.49788 -0.51851,0.49788 -0.0317,0 -0.24502,-0.19032 -0.47413,-0.42293 z"
         id="path22087" />
      <path
         style="fill:#666666;stroke-width:0.0846667"
         d="m 96.16838,123.74837 c -0.85749,-0.17187 -0.9069,-0.20415 -2.09084,-1.3662 l -1.15952,-1.13807 -0.266297,-1.87986 c 0,0 0.704501,0.5726 1.312481,1.17933 1.16757,1.16516 2.147916,2.01292 2.728786,1.86766 0.2628,-0.0657 2.66778,-2.38968 2.8689,-2.77225 0.14389,-0.2737 0.15547,-0.6866 0.0264,-0.94111 -0.13418,-0.26459 -2.480998,-2.53109 -2.71718,-2.73073 -0.369473,-0.3123 -0.84029,-0.16141 -0.96449,-0.0372 l -1.00821,-0.854 0.21116,-0.16011 c 0.29091,-0.22058 0.89016,-0.37567 1.40502,-0.36361 0.75008,0.0176 1.06898,0.24199 2.71505,1.91075 1.65513,1.67795 1.74686,1.82227 1.73985,2.73756 -0.006,0.81184 -0.22444,1.13529 -1.86354,2.76202 -0.88458,0.87791 -1.61958,1.53668 -1.79454,1.60843 -0.34237,0.14041 -0.89762,0.22659 -1.143,0.1774 z"
         id="path22089" />
      <path
         style="fill:#999999;stroke-width:0.0846667"
         d="m 92.00001,123.70977 c -0.64941,-0.11809 -0.91358,-0.32042 -2.45116,-1.87735 -1.33864,-1.3555 -1.53564,-1.59023 -1.63277,-1.94558 -0.26088,-0.95444 -0.0829,-1.66118 0.59987,-2.3822 l 0.48836,-0.5157 0.44686,0.44299 0.44685,0.443 -0.30497,0.319 c -0.38092,0.39844 -0.49433,0.61701 -0.49433,0.95265 0,0.4308 0.17519,0.65844 1.5486,2.01219 1.2689,1.25073 1.32101,1.29117 1.66422,1.29117 0.19487,0 0.561138,-0.0994 0.561138,-0.0994 0,0 0.119842,0.1311 0.44901,0.45629 0.24603,0.24912 0.487212,0.47169 0.487212,0.47169 -0.0871,0.14088 -0.755,0.4154 -1.11185,0.45697 -0.18627,0.0217 -0.49994,0.0101 -0.69704,-0.0257 z"
         id="path22091" />
    </g>
    <g
       id="g64222"
       transform="translate(-13.171554,-15.825456)">
      <g
         id="g64215">
        <path
           style="fill:#b3b3b3;fill-opacity:1;stroke-width:0.0846667"
           d="m 102.37698,173.51127 -0.002,-0.54132 -0.42481,-5.7e-4 c -0.54969,-0.001 -1.07857,-0.0579 -1.21301,-0.3652 -0.13296,-0.30389 -0.113,-0.38 -0.12796,-2.12414 0,0 -0.0353,-1.79392 0.0418,-2.12735 0.0649,-0.32759 0.25188,-0.61576 0.58187,-0.75611 l 0.0741,-1.26286 c 0,0 -0.94469,0.27642 -1.319409,0.67751 -0.74668,0.79925 -0.68737,0.95891 -0.66507,3.40652 0.0169,1.8596 0.0447,2.16537 0.22754,2.48415 0.482219,0.84192 1.111959,1.2248 2.072769,1.26006 0.37292,0.0138 0.69631,0.006 0.71868,-0.0159 0.0223,-0.0225 0.0382,-0.30791 0.035,-0.63438 z"
           id="path36555"
           sodipodi:nodetypes="ccssccccsscsccc" />
        <path
           style="fill:#666666;stroke-width:0.0846667"
           d="m 100.31956,166.70968 c 0.52846,-0.33977 0.81125,-0.37848 2.82712,-0.38704 2.36795,-0.01 2.71894,0.054 3.35334,0.68959 0.64019,0.64154 0.69236,0.97473 0.66972,3.40093 -0.0174,1.89316 -0.0432,2.16388 -0.23674,2.50451 -0.26225,0.46164 -0.55748,0.75299 -1.03989,1.02638 -0.30839,0.17465 -0.60506,0.19299 -1.98708,0.21874 l -1.78722,-0.004 -0.64688,-1.21534 c 0,0 2.65293,0.11173 3.67865,-0.0978 0.31586,-0.0967 0.59782,-0.37815 0.69511,-0.69374 0.0911,-0.29554 0.0864,-3.57018 -0.005,-3.85227 -0.0883,-0.27073 -0.37786,-0.56586 -0.67288,-0.65882 -0.13526,-0.0427 -1.07363,-0.0725 -2.08523,-0.0662 0,0 -1.6825,-0.078 -1.83926,0.0114 -0.15677,0.0893 -0.13705,0.0454 -0.31354,0.20922 -0.17672,0.16362 -0.27429,0.54323 -0.27435,0.60856 l -1.328719,0.008 0.0364,-0.26248 c 0.0777,-0.60456 0.54755,-1.17573 0.956999,-1.43898 z"
           id="path36557"
           sodipodi:nodetypes="ccccccccccsccczcccccc" />
        <path
           style="fill:#cccccc;fill-opacity:1;stroke-width:0.0846667"
           d="m 106.30226,167.27359 0.37479,0.39059 0.30771,-0.29288 c 0.39877,-0.37834 0.82079,-0.70212 1.13007,-0.57246 0.3059,0.12827 0.34395,0.19714 1.55804,1.44943 0,0 1.26311,1.27435 1.43736,1.56888 0.179,0.28193 0.24246,0.61953 0.10039,0.94879 l 0.81759,0.96532 c 0,0 0.49318,-0.85183 0.48775,-1.4007 -0.0109,-1.09371 -0.16393,-1.16838 -1.86865,-2.92487 -1.2951,-1.33458 -1.5262,-1.53671 -1.87849,-1.64135 -0.92992,-0.27681 -1.64994,-0.11953 -2.36981,0.51779 -0.27947,0.24731 -0.50837,0.47588 -0.50931,0.50731 -7.2e-4,0.0317 0.18479,0.24922 0.41226,0.48343 z"
           id="path36559"
           sodipodi:nodetypes="ccssccccsscsccc" />
      </g>
      <path
         style="fill:#666666;stroke-width:0.0846667"
         d="m 112.48398,170.77801 c -0.14817,0.61056 -0.32617,0.83367 -1.7796,2.23057 -1.70735,1.64081 -2.00009,1.82269 -2.89789,1.80018 -0.90602,-0.0228 -1.17907,-0.21395 -2.83647,-1.98594 -1.29338,-1.38258 -1.46156,-1.59628 -1.55643,-1.97639 -0.12864,-0.51511 -0.1159,-0.9297 0.0447,-1.46042 0.10277,-0.33918 0.30488,-0.55714 1.2876,-1.5292 l 1.26446,-1.22972 1.33863,0.43297 c 0,0 -1.9976,1.74932 -2.5956,2.60861 -0.16196,0.28789 -0.1719,0.68618 -0.0246,0.98176 0.13796,0.27678 2.40048,2.64412 2.66136,2.78518 0.25063,0.13512 0.66392,0.14896 0.94162,0.0127 0.12739,-0.0624 0.82719,-0.68824 1.5552,-1.39065 0,0 1.27181,-1.10426 1.32362,-1.27712 0.0518,-0.17287 0.0679,-0.12738 0.0827,-0.36776 0.015,-0.24037 -0.17621,-0.58248 -0.22124,-0.62982 l 0.9565,-0.92232 0.15472,0.21514 c 0.36087,0.49121 0.41472,1.22888 0.29993,1.70192 z"
         id="path36561"
         sodipodi:nodetypes="ccccccccccsccczcccccc" />
    </g>
    <path
       style="fill:#ffffff;fill-opacity:1;stroke-width:0.0846667"
       d="m 129.36602,154.87579 -0.002,-0.54132 -0.42481,-5.7e-4 c -0.54969,-0.001 -1.01795,-0.0879 -1.15239,-0.39524 -0.13296,-0.30389 -0.14959,-0.76315 -0.18858,-2.0941 0,0 -0.0309,-1.74281 0.0462,-2.07624 0.0649,-0.32759 0.17617,-0.65299 0.56698,-0.83565 l 0.083,-1.17829 c 0,0 -0.91368,0.12949 -1.25688,0.55786 -0.85078,1.06193 -0.72686,1.00396 -0.726,3.47003 6.6e-4,1.89191 0.0447,2.16537 0.22754,2.48415 0.48222,0.84192 1.11196,1.2248 2.07277,1.26006 0.37292,0.0138 0.69631,0.006 0.71868,-0.0159 0.0223,-0.0225 0.0382,-0.30791 0.035,-0.63438 z"
       id="path32836"
       sodipodi:nodetypes="ccssccccsscsccc" />
    <path
       style="fill:#b3b3b3;stroke-width:0.0846667;fill-opacity:1"
       d="m 127.3086,148.0742 c 0.52846,-0.33977 0.81125,-0.37848 2.82712,-0.38704 2.36795,-0.01 2.71894,0.054 3.35334,0.68959 0.64019,0.64154 0.69236,0.97473 0.66972,3.40093 -0.0174,1.89316 -0.0432,2.16388 -0.23674,2.50451 -0.26225,0.46164 -0.55748,0.75299 -1.03989,1.02638 -0.30839,0.17465 -0.60506,0.19299 -1.98708,0.21874 l -1.78213,0.005 -0.65626,-1.22872 c 0,0 2.65722,0.116 3.68294,-0.0935 0.31586,-0.0967 0.59782,-0.37815 0.69511,-0.69374 0.0911,-0.29554 0.0864,-3.57018 -0.005,-3.85227 -0.0883,-0.27073 -0.37786,-0.56586 -0.67288,-0.65882 -0.13526,-0.0427 -1.07363,-0.0725 -2.08523,-0.0662 0,0 -1.6825,-0.078 -1.83926,0.0114 -0.15677,0.0893 -0.13705,0.0454 -0.31354,0.20922 -0.17672,0.16362 -0.26123,0.54656 -0.27435,0.60856 l -1.3237,0.0118 0.031,-0.26628 c 0.098,-0.58439 0.54755,-1.17573 0.957,-1.43898 z"
       id="path32013"
       sodipodi:nodetypes="ccccccccccsccczcccccc" />
    <path
       style="fill:#67d3c3;fill-opacity:1;stroke-width:0.0846667"
       d="m 133.2913,148.63811 0.37479,0.39059 0.30771,-0.29288 c 0.39877,-0.37834 0.82079,-0.70212 1.13007,-0.57246 0.3059,0.12827 0.34395,0.19714 1.55804,1.44943 0,0 1.23628,1.30162 1.43736,1.56888 0.179,0.28193 0.28761,0.68885 0.11535,1.0113 l 0.75858,0.89505 c 0,0 0.56487,-0.84504 0.5318,-1.39294 -0.0679,-1.12438 -0.18499,-1.20369 -1.86865,-2.92487 -1.30042,-1.3294 -1.5262,-1.53671 -1.87849,-1.64135 -0.92992,-0.27681 -1.64994,-0.11953 -2.36981,0.51779 -0.27947,0.24731 -0.50837,0.47588 -0.50931,0.50731 -7.2e-4,0.0317 0.18479,0.24922 0.41226,0.48343 z"
       id="path36001"
       sodipodi:nodetypes="ccssccccsscsccc" />
    <path
       style="fill:#808080;stroke-width:0.0846667;fill-opacity:1"
       d="m 139.47302,152.14253 c -0.14817,0.61056 -0.32617,0.83367 -1.7796,2.23057 -1.70735,1.64081 -2.00009,1.82269 -2.89789,1.80018 -0.90602,-0.0228 -1.17907,-0.21395 -2.83647,-1.98594 -1.29338,-1.38258 -1.46156,-1.59628 -1.55643,-1.97639 -0.12864,-0.51511 -0.1159,-0.9297 0.0447,-1.46042 0.10277,-0.33918 0.30488,-0.55714 1.2876,-1.5292 l 1.26446,-1.22972 1.33863,0.43297 c 0,0 -1.9976,1.74932 -2.5956,2.60861 -0.16196,0.28789 -0.1719,0.68618 -0.0246,0.98176 0.13796,0.27678 2.40048,2.64412 2.66136,2.78518 0.25063,0.13512 0.66392,0.14896 0.94162,0.0127 0.12739,-0.0624 0.82719,-0.68824 1.5552,-1.39065 0,0 1.27181,-1.10426 1.32362,-1.27712 0.0518,-0.17287 0.0679,-0.12738 0.0827,-0.36776 0.015,-0.24037 -0.17621,-0.58248 -0.22124,-0.62982 l 0.95196,-0.91881 0.15926,0.21163 c 0.36087,0.49121 0.41472,1.22888 0.29993,1.70192 z"
       id="path36003"
       sodipodi:nodetypes="ccccccccccsccczcccccc" />
    <text
       xml:space="preserve"
       style="font-style:normal;font-variant:normal;font-weight:normal;font-stretch:normal;font-size:6.09459px;line-height:1.25;font-family:Mallanna;-inkscape-font-specification:Mallanna;fill:#666666;fill-opacity:1;stroke:none;stroke-width:0.228547"
       x="124.89931"
       y="161.72845"
       id="text31869"><tspan
         sodipodi:role="line"
         id="tspan31867"
         style="font-style:normal;font-variant:normal;font-weight:normal;font-stretch:normal;font-size:6.09459px;font-family:Mallanna;-inkscape-font-specification:Mallanna;fill:#666666;fill-opacity:1;stroke-width:0.228547"
         x="124.89931"
         y="161.72845">Knott</tspan></text>
    <text
       xml:space="preserve"
       style="font-style:normal;font-variant:normal;font-weight:normal;font-stretch:normal;font-size:6.09459px;line-height:1.25;font-family:Mallanna;-inkscape-font-specification:Mallanna;fill:#67d3c3;fill-opacity:1;stroke:none;stroke-width:0.228547"
       x="136.25485"
       y="161.73196"
       id="text59429"><tspan
         sodipodi:role="line"
         id="tspan59427"
         style="font-style:normal;font-variant:normal;font-weight:normal;font-stretch:normal;font-size:6.09459px;font-family:Mallanna;-inkscape-font-specification:Mallanna;fill:#67d3c3;fill-opacity:1;stroke-width:0.228547"
         x="136.25485"
         y="161.73196">JS</tspan></text>
    <rect
       style="fill:none;stroke-width:10.6217"
       id="rect441"
       width="53.210186"
       height="28.580364"
       x="3.1177313"
       y="123.05762" />
    <path
       style="fill:#666666;stroke-width:0.263169"
       d="m 16.007861,151.56411 c -1.90871,-0.41269 -2.615909,-0.94837 -7.0700635,-5.35553 -5.2320981,-5.17689 -5.820063,-6.07239 -5.820063,-8.86401 0,-2.81708 0.5727032,-3.6805 5.949368,-8.96898 4.1953575,-4.12661 4.8460475,-4.66608 6.0196775,-4.99068 1.590576,-0.43995 2.879834,-0.4328 4.541497,0.0249 1.061949,0.2928 1.754984,0.90383 4.852296,3.88151 l 3.721116,3.56325 0.833262,6.26138 c 0,0 -4.585679,-4.35907 -6.320324,-6.10605 -1.734646,-1.74699 -3.473705,-3.34574 -3.864573,-3.55278 -0.907311,-0.48064 -2.145593,-0.48052 -3.052563,2.8e-4 -0.84931,0.4502 -8.0287229,7.66545 -8.4457938,8.48791 -0.4003172,0.78935 -0.3654421,2.07295 0.079572,2.92521 0.2039041,0.39087 2.2031588,2.51666 4.4425608,4.72399 l 4.071585,4.0133 c 0,0 0.605123,0.32575 1.353177,0.35273 0.748055,0.028 1.443595,-0.59514 1.587167,-0.73875 l 3.043588,2.77941 -0.656347,0.49767 c -1.11308,0.84399 -3.78612,1.38465 -5.264953,1.0649 z"
       id="path21418" />
    <path
       style="fill:#67d3c3;stroke-width:0.263169;fill-opacity:1"
       d="m 38.773224,142.60915 -1.294822,-1.31456 0.944641,-0.98816 c 1.180655,-1.23508 1.533166,-1.91511 1.533166,-2.9577 0,-1.33905 -0.544542,-2.04662 -4.813504,-6.25447 0,0 -3.143803,-3.47116 -4.047216,-4.03283 -0.8635,-0.57593 -1.84149,-0.13801 -2.874488,0.28068 l -2.905416,-2.8365 c 0,0 2.680406,-1.41854 4.386518,-1.41854 2.739153,0 3.619359,0.59039 8.959533,6.00961 4.057256,4.11728 4.668999,4.84978 4.970317,5.95123 0.795693,2.9089 0.257056,5.1355 -1.773312,7.3284 -0.788015,0.85114 -1.513273,1.54755 -1.611682,1.54755 -0.09853,0 -0.761594,-0.59157 -1.473735,-1.31459 z"
       id="path21420" />
    <path
       style="fill:#666666;stroke-width:0.263169"
       d="m 41.403649,151.644 c -2.665331,-0.53423 -2.818912,-0.63456 -6.498946,-4.24656 l -3.604129,-3.53745 -0.827729,-5.84316 c 0,0 2.189796,1.77981 4.079577,3.66571 3.62915,3.62166 6.676354,6.25674 8.481869,5.80523 0.816859,-0.20421 8.292244,-7.42783 8.917384,-8.61697 0.447253,-0.85074 0.483247,-2.13415 0.08206,-2.92524 -0.417071,-0.82243 -7.711671,-7.86737 -8.445794,-8.48791 -1.148431,-0.97072 -2.611868,-0.50171 -2.997918,-0.11563 l -3.133814,-2.65449 0.656348,-0.49767 c 0.904234,-0.68562 2.766879,-1.16769 4.367215,-1.1302 2.331469,0.0547 3.322704,0.75217 8.439174,5.93917 5.14463,5.21556 5.429754,5.66415 5.407965,8.50914 -0.01865,2.52344 -0.697626,3.52882 -5.79243,8.58517 -2.749535,2.7288 -5.034131,4.77646 -5.577958,4.99948 -1.064187,0.43643 -2.790067,0.7043 -3.55278,0.55141 z"
       id="path21422" />
    <path
       style="fill:#999999;stroke-width:0.263169"
       d="m 28.447129,151.52402 c -2.018557,-0.36706 -2.839675,-0.99596 -7.618926,-5.83536 -4.160887,-4.21329 -4.77322,-4.9429 -5.075129,-6.04743 -0.810892,-2.96668 -0.257678,-5.16344 1.864572,-7.40458 l 1.517967,-1.60295 1.388972,1.37694 1.388941,1.37698 -0.947936,0.99154 c -1.184012,1.23847 -1.536523,1.91785 -1.536523,2.96112 0,1.33905 0.544542,2.04662 4.813504,6.25448 3.944114,3.88763 4.106087,4.01333 5.172885,4.01333 0.605713,0 1.744182,-0.30896 1.744182,-0.30896 0,0 0.372504,0.4075 1.395655,1.41828 0.764733,0.77434 1.514398,1.46615 1.514398,1.46615 -0.270732,0.4379 -2.346762,1.29119 -3.455957,1.4204 -0.578982,0.0675 -1.55396,0.0314 -2.166605,-0.0799 z"
       id="path21424" />
    <path
       style="fill:#67d3c3;fill-opacity:1;stroke-width:0.23759"
       d="m 19.259518,108.78512 -0.0056,-1.51904 -1.192094,-0.001 c -1.542527,-0.003 -2.85655,-0.24667 -3.233813,-1.10912 -0.373109,-0.85277 -0.419775,-2.14153 -0.529191,-5.87642 0,0 -0.08671,-4.890637 0.129649,-5.826303 0.182121,-0.919273 0.494363,-1.832404 1.591048,-2.344982 l 0.232911,-3.306493 c 0,0 -2.563952,0.363372 -3.527032,1.565456 -2.38744,2.979965 -2.039698,2.81729 -2.037284,9.737522 0.0018,5.30904 0.125433,6.07642 0.638517,6.97098 1.353195,2.36257 3.120358,3.437 5.816564,3.53595 1.046482,0.0387 1.953972,0.0168 2.016745,-0.0446 0.06258,-0.0631 0.107196,-0.86405 0.09822,-1.78018 z"
       id="path41374"
       sodipodi:nodetypes="ccssccccsscsccc"
       inkscape:export-filename="/home/louis/Documents/designs/social preview images/rect492.png"
       inkscape:export-xdpi="57.75"
       inkscape:export-ydpi="57.75" />
    <path
       style="fill:#666666;fill-opacity:1;stroke-width:0.23759"
       d="m 13.486028,89.698638 c 1.482952,-0.953455 2.276514,-1.062084 7.933407,-1.086103 6.644893,-0.02808 7.629833,0.151534 9.410075,1.935111 1.796487,1.800276 1.942885,2.735271 1.879355,9.543624 -0.04883,5.31255 -0.121229,6.07224 -0.664336,7.0281 -0.735918,1.29545 -1.564388,2.11303 -2.918117,2.88021 -0.865397,0.4901 -1.697909,0.54157 -5.576103,0.61382 l -5.00098,0.014 -1.841582,-3.44801 c 0,0 7.456638,0.32552 10.33499,-0.26237 0.886362,-0.27136 1.677593,-1.06116 1.950605,-1.94676 0.255645,-0.82934 0.242453,-10.018571 -0.01404,-10.810166 -0.247784,-0.759717 -1.060344,-1.587904 -1.888222,-1.848768 -0.379565,-0.119825 -3.012797,-0.203447 -5.851529,-0.185769 0,0 -4.721399,-0.21888 -5.161294,0.03198 -0.439928,0.250592 -0.38459,0.1274 -0.879852,0.587109 -0.495908,0.459149 -0.733056,1.533746 -0.769876,1.707729 l -3.714537,0.0331 0.08699,-0.747229 c 0.275007,-1.639904 1.536525,-3.299311 2.685516,-4.038037 z"
       id="path41376"
       sodipodi:nodetypes="ccccccccccsccczcccccc"
       inkscape:export-filename="/home/louis/Documents/designs/social preview images/rect492.png"
       inkscape:export-xdpi="57.75"
       inkscape:export-ydpi="57.75" />
    <path
       style="fill:#67d3c3;fill-opacity:1;stroke-width:0.23759"
       d="m 30.274558,91.281071 1.05173,1.096067 0.863488,-0.821876 c 1.119021,-1.06169 2.303286,-1.970274 3.171181,-1.606425 0.85841,0.35995 0.965185,0.553209 4.372139,4.06736 0,0 3.469226,3.652581 4.033493,4.40256 0.502307,0.791148 0.807085,1.933033 0.32369,2.837893 l 2.128713,2.51167 c 0,0 1.585128,-2.37134 1.492328,-3.908841 -0.190541,-3.155214 -0.519117,-3.377771 -5.243769,-8.207714 -3.649213,-3.730533 -4.282793,-4.312282 -5.271382,-4.60592 -2.60952,-0.77678 -4.630029,-0.335423 -6.650112,1.453012 -0.784243,0.693995 -1.426578,1.335402 -1.429216,1.423601 -0.0022,0.08896 0.518554,0.699358 1.156876,1.356592 z"
       id="path41378"
       sodipodi:nodetypes="ccssccccsscsccc"
       inkscape:export-filename="/home/louis/Documents/designs/social preview images/rect492.png"
       inkscape:export-xdpi="57.75"
       inkscape:export-ydpi="57.75" />
    <path
       style="fill:#666666;fill-opacity:1;stroke-width:0.23759"
       d="m 47.621577,101.1151 c -0.41579,1.71334 -0.915292,2.33943 -4.993877,6.25938 -4.79113,4.60441 -5.612612,5.1148 -8.131999,5.05163 -2.542456,-0.064 -3.308684,-0.60038 -7.959645,-5.5729 -3.629457,-3.87977 -4.101401,-4.47945 -4.367624,-5.54611 -0.360986,-1.445488 -0.325235,-2.608904 0.125437,-4.098197 0.28839,-0.951802 0.855548,-1.563438 3.613238,-4.291213 l 3.5483,-3.450816 3.756436,1.214994 c 0,0 -5.605622,4.908905 -7.28372,7.320229 -0.454487,0.807869 -0.482381,1.925543 -0.06903,2.754993 0.387141,0.77669 6.736177,7.41988 7.468255,7.81572 0.703311,0.37917 1.863078,0.41801 2.642356,0.0356 0.357478,-0.17511 2.321241,-1.93133 4.36417,-3.90242 0,0 3.568926,-3.09875 3.714314,-3.58383 0.145362,-0.4851 0.190541,-0.35744 0.232074,-1.03199 0.04209,-0.674529 -0.494479,-1.634548 -0.62084,-1.767395 l 2.671369,-2.578344 0.446915,0.593872 c 1.012665,1.378423 1.163777,3.448455 0.841656,4.775897 z"
       id="path41380"
       sodipodi:nodetypes="ccccccccccsccczcccccc"
       inkscape:export-filename="/home/louis/Documents/designs/social preview images/rect492.png"
       inkscape:export-xdpi="57.75"
       inkscape:export-ydpi="57.75" />
    <g
       id="g90122"
       transform="translate(-110.81056,-67.660018)">
      <g
         id="g90118">
        <path
           style="fill:#b3b3b3;fill-opacity:1;stroke-width:0.0846667"
           d="m 102.37698,173.51127 -0.002,-0.54132 -0.42481,-5.7e-4 c -0.54969,-0.001 -1.07857,-0.0579 -1.21301,-0.3652 -0.13296,-0.30389 -0.113,-0.38 -0.12796,-2.12414 0,0 -0.0353,-1.79392 0.0418,-2.12735 0.0649,-0.32759 0.25188,-0.61576 0.58187,-0.75611 l 0.0741,-1.26286 c 0,0 -0.94469,0.27642 -1.319409,0.67751 -0.74668,0.79925 -0.68737,0.95891 -0.66507,3.40652 0.0169,1.8596 0.0447,2.16537 0.22754,2.48415 0.482219,0.84192 1.111959,1.2248 2.072769,1.26006 0.37292,0.0138 0.69631,0.006 0.71868,-0.0159 0.0223,-0.0225 0.0382,-0.30791 0.035,-0.63438 z"
           id="path90112"
           sodipodi:nodetypes="ccssccccsscsccc" />
        <path
           style="fill:#666666;stroke-width:0.0846667"
           d="m 100.31956,166.70968 c 0.52846,-0.33977 0.81125,-0.37848 2.82712,-0.38704 2.36795,-0.01 2.71894,0.054 3.35334,0.68959 0.64019,0.64154 0.69236,0.97473 0.66972,3.40093 -0.0174,1.89316 -0.0432,2.16388 -0.23674,2.50451 -0.26225,0.46164 -0.55748,0.75299 -1.03989,1.02638 -0.30839,0.17465 -0.60506,0.19299 -1.98708,0.21874 l -1.78722,-0.004 -0.64688,-1.21534 c 0,0 2.65293,0.11173 3.67865,-0.0978 0.31586,-0.0967 0.59782,-0.37815 0.69511,-0.69374 0.0911,-0.29554 0.0864,-3.57018 -0.005,-3.85227 -0.0883,-0.27073 -0.37786,-0.56586 -0.67288,-0.65882 -0.13526,-0.0427 -1.07363,-0.0725 -2.08523,-0.0662 0,0 -1.6825,-0.078 -1.83926,0.0114 -0.15677,0.0893 -0.13705,0.0454 -0.31354,0.20922 -0.17672,0.16362 -0.27429,0.54323 -0.27435,0.60856 l -1.328719,0.008 0.0364,-0.26248 c 0.0777,-0.60456 0.54755,-1.17573 0.956999,-1.43898 z"
           id="path90114"
           sodipodi:nodetypes="ccccccccccsccczcccccc" />
        <path
           style="fill:#cccccc;fill-opacity:1;stroke-width:0.0846667"
           d="m 106.30226,167.27359 0.37479,0.39059 0.30771,-0.29288 c 0.39877,-0.37834 0.82079,-0.70212 1.13007,-0.57246 0.3059,0.12827 0.34395,0.19714 1.55804,1.44943 0,0 1.26311,1.27435 1.43736,1.56888 0.179,0.28193 0.24246,0.61953 0.10039,0.94879 l 0.81759,0.96532 c 0,0 0.49318,-0.85183 0.48775,-1.4007 -0.0109,-1.09371 -0.16393,-1.16838 -1.86865,-2.92487 -1.2951,-1.33458 -1.5262,-1.53671 -1.87849,-1.64135 -0.92992,-0.27681 -1.64994,-0.11953 -2.36981,0.51779 -0.27947,0.24731 -0.50837,0.47588 -0.50931,0.50731 -7.2e-4,0.0317 0.18479,0.24922 0.41226,0.48343 z"
           id="path90116"
           sodipodi:nodetypes="ccssccccsscsccc" />
      </g>
      <path
         style="fill:#666666;stroke-width:0.0846667"
         d="m 112.48398,170.77801 c -0.14817,0.61056 -0.32617,0.83367 -1.7796,2.23057 -1.70735,1.64081 -2.00009,1.82269 -2.89789,1.80018 -0.90602,-0.0228 -1.17907,-0.21395 -2.83647,-1.98594 -1.29338,-1.38258 -1.46156,-1.59628 -1.55643,-1.97639 -0.12864,-0.51511 -0.1159,-0.9297 0.0447,-1.46042 0.10277,-0.33918 0.30488,-0.55714 1.2876,-1.5292 l 1.26446,-1.22972 1.33863,0.43297 c 0,0 -1.9976,1.74932 -2.5956,2.60861 -0.16196,0.28789 -0.1719,0.68618 -0.0246,0.98176 0.13796,0.27678 2.40048,2.64412 2.66136,2.78518 0.25063,0.13512 0.66392,0.14896 0.94162,0.0127 0.12739,-0.0624 0.82719,-0.68824 1.5552,-1.39065 0,0 1.27181,-1.10426 1.32362,-1.27712 0.0518,-0.17287 0.0679,-0.12738 0.0827,-0.36776 0.015,-0.24037 -0.17621,-0.58248 -0.22124,-0.62982 l 0.9565,-0.92232 0.15472,0.21514 c 0.36087,0.49121 0.41472,1.22888 0.29993,1.70192 z"
         id="path90120"
         sodipodi:nodetypes="ccccccccccsccczcccccc" />
    </g>
  </g>
</svg>
